<?xml version="1.0" standalone="no"?>
  <!DOCTYPE svg PUBLIC "-//W3C//DTD SVG 1.1//EN" "http://www.w3.org/Graphics/SVG/1.1/DTD/svg11.dtd" >
  <svg>
  <metadata>
  Created by font-carrier
  </metadata>
  <defs>
  <font id="You2013" horiz-adv-x="1161" vert-adv-y="1161" >
    <font-face
      
      font-family="You2013"
      
      font-weight="400"
      
      font-stretch="normal"
      
      units-per-em="1000"
      
      ascent="750"
      
      descent="-250"
      
    />
      <missing-glyph />

      

      
      <glyph glyph-name="uni21" unicode="&#x21;" d="M148 221L140 221Q51 505 51 603Q51 652 74.50 680Q98 708 144 708Q190 708 213.50 680Q237 652 237 603Q237 547 203.50 416.50Q170 286 148 221M203.50 130.50Q203.50 130.50 215.75 118.25Q228 106 228 71Q228 36 203.50 11.50Q179-13 144-13Q109-13 84.50 11.50Q60 36 60 71Q60 106 84.50 130.50Q109 155 144 155Q179 155 203.50 130.50Z"  horiz-adv-x="288" vert-adv-y="1000"  />

      
      <glyph glyph-name="uni22" unicode="&#x22;" d="M273 429L268 429Q255 466 240 518Q213 604 213 649Q213 676 226 698Q239 720 270 720Q302 720 315 698Q328 676 328 649Q328 608 300 518Q287 472 273 429M100 429L95 429Q82 466 67 518Q40 604 40 649Q40 676 53 698Q66 720 97 720Q129 720 142 698Q155 676 155 649Q155 608 127 518Q114 472 100 429Z"  horiz-adv-x="368" vert-adv-y="1000"  />

      
      <glyph glyph-name="uni23" unicode="&#x23;" d="M374 203L347 0L279 0L306 203L183 203L156 0L88 0L115 203L28 203L37 269L123 269L144 421L58 421L66 487L152 487L179 690L247 690L220 487L343 487L370 690L438 690L411 487L501 487L492 421L403 421L382 269L472 269L463 203L374 203M191 269L314 269L335 421L212 421L191 269Z"  horiz-adv-x="526" vert-adv-y="1000"  />

      
      <glyph glyph-name="uni24" unicode="&#x24;" d="M274-7L274-96L217-96L217-9Q127-6 30 34L30 189Q56 127 103.50 86.50Q151 46 217 40L217 284L210 287Q119 335 73 383.50Q27 432 27 504Q27 588 80 638.50Q133 689 217 698L217 768L274 768L274 697Q355 691 422 663L411 523Q365 631 274 648L274 433Q308 416 317 411.50Q326 407 356 390Q386 373 397 363.50Q408 354 429 335Q450 316 458 299Q466 282 473.50 258Q481 234 481 207Q481 116 426.50 60Q372 4 274-7M274 252L274 43Q358 57 358 132Q358 169 340 196Q322 223 274 252M217 465L217 647Q148 634 148 571Q148 536 164.50 511.50Q181 487 217 465Z"  horiz-adv-x="500" vert-adv-y="1000"  />

      
      <glyph glyph-name="uni25" unicode="&#x25;" d="M361.50 652.50Q361.50 652.50 386.75 628.25Q412 604 412 528Q412 452 361.50 403Q311 354 231 354Q150 354 99.50 403Q49 452 49 528Q49 604 99.50 652.50Q150 701 231 701Q311 701 361.50 652.50M231 397Q293 397 293 528Q293 659 231 659Q168 659 168 528Q168 397 231 397M766 161Q766 85 715 36Q664-13 584-13Q503-13 452.50 36Q402 85 402 161Q402 237 452.50 285.50Q503 334 584 334Q664 334 715 285Q766 236 766 161M584 30Q646 30 646 161Q646 292 584 292Q521 292 521 161Q521 30 584 30M224-26L160-26L589 714L652 714L224-26Z"  horiz-adv-x="857" vert-adv-y="1000"  />

      
      <glyph glyph-name="uni26" unicode="&#x26;" d="M462 58L461 59Q370-18 250-18Q168-18 112.50 28.50Q57 75 57 156Q57 202 76 243Q95 284 126 312.50Q157 341 182.50 358Q208 375 235 388Q214 426 206 442.50Q198 459 191.50 482.50Q185 506 185 534Q185 612 238.50 660Q292 708 377 708Q450 708 499 679.50Q548 651 548 588Q548 529 508 489.50Q468 450 406 419L551 213Q571 242 588.50 288Q606 334 606 365Q606 425 543 438L706 438Q684 316 581 172Q663 64 740 64Q791 64 791 70Q771 27 726 5.50Q681-16 622-16Q526-16 462 58M377 458Q438 499 438 575Q438 617 420 642.50Q402 668 373 668Q312 668 312 604Q312 594 314 583.50Q316 573 320.50 561.50Q325 550 328.50 541.50Q332 533 339.50 519.50Q347 506 351 499.50Q355 493 364.50 478Q374 463 377 458M437 91L263 343Q237 323 218 288Q199 253 199 209Q199 148 233.50 105.50Q268 63 335 63Q392 63 437 91Z"  horiz-adv-x="833" vert-adv-y="1000"  />

      
      <glyph glyph-name="uni27" unicode="&#x27;" d="M90 429L85 429Q72 466 57 518Q30 604 30 649Q30 676 43 698Q56 720 87 720Q119 720 132 698Q145 676 145 649Q145 608 117 518Q104 472 90 429Z"  horiz-adv-x="175" vert-adv-y="1000"  />

      
      <glyph glyph-name="uni28" unicode="&#x28;" d="M336-147L336-155Q203-102 126.50 21.50Q50 145 50 298Q50 450 129 575.50Q208 701 336 751L336 743Q266 675 231 548Q196 421 196 298Q196 171 229.50 44.50Q263-82 336-147Z"  horiz-adv-x="366" vert-adv-y="1000"  />

      
      <glyph glyph-name="uni29" unicode="&#x29;" d="M30-155L30-147Q103-82 136.50 44.50Q170 171 170 298Q170 421 135 548Q100 675 30 743L30 751Q158 701 237 575.50Q316 450 316 298Q316 145 239.50 21.50Q163-102 30-155Z"  horiz-adv-x="366" vert-adv-y="1000"  />

      
      <glyph glyph-name="uni2a" unicode="&#x2a;" d="M266 447Q268 437 283 393.50Q298 350 298 330Q298 309 284 292.50Q270 276 250 276Q230 276 216 292.50Q202 309 202 330Q202 350 216.50 394Q231 438 233 447Q221 451 212 460Q205 454 181 426Q157 398 137 382Q117 366 99 366Q78 366 63.50 378Q49 390 49 410Q49 426 56.50 437.50Q64 449 80 456Q96 463 106.50 466Q117 469 139.50 472.50Q162 476 166 477L197 485Q196 488 196 497Q196 506 197 509L166 517Q162 518 139.50 521.50Q117 525 106.50 528Q96 531 80 538Q64 545 56.50 556.50Q49 568 49 584Q49 604 63.50 616Q78 628 99 628Q117 628 137 612Q157 596 181 568Q205 540 212 534Q221 543 233 547Q231 556 216.50 600Q202 644 202 664Q202 685 216 701.50Q230 718 250 718Q270 718 284 701.50Q298 685 298 664Q298 644 283 600.50Q268 557 266 547Q278 543 287 534Q293 540 317.50 568Q342 596 362.50 612Q383 628 401 628Q421 628 436 615.50Q451 603 451 584Q451 568 443.50 556.50Q436 545 419.50 538Q403 531 392.50 528Q382 525 359.50 521.50Q337 518 333 517L302 509Q303 506 303 497Q303 488 302 485L333 477Q337 476 359.50 472.50Q382 469 392.50 466Q403 463 419.50 456Q436 449 443.50 437.50Q451 426 451 410Q451 391 436 378.50Q421 366 401 366Q383 366 362.50 382Q342 398 317.50 426Q293 454 287 460Q278 451 266 447Z"  horiz-adv-x="499" vert-adv-y="1000"  />

      
      <glyph glyph-name="uni2b" unicode="&#x2b;" d="M343 210L343 0L257 0L257 210L59 210L59 296L257 296L257 506L343 506L343 296L541 296L541 210L343 210Z"  horiz-adv-x="600" vert-adv-y="1000"  />

      
      <glyph glyph-name="uni2c" unicode="&#x2c;" d="M49-183L45-178Q80-149 101.50-95.50Q123-42 119-7Q86-7 62.50 16.50Q39 40 39 76Q39 110 62.50 134Q86 158 121 158Q162 158 186 130.50Q210 103 210 56Q210-27 167-92Q124-157 49-183Z"  horiz-adv-x="249" vert-adv-y="1000"  />

      
      <glyph glyph-name="uni2d" unicode="&#x2d;" d="M278 296L278 188L55 188L55 296L278 296Z"  horiz-adv-x="333" vert-adv-y="1000"  />

      
      <glyph glyph-name="uni2e" unicode="&#x2e;" d="M179.50 131.50Q179.50 131.50 191.75 119.25Q204 107 204 72Q204 37 179.50 12.50Q155-12 120-12Q85-12 60.50 12.50Q36 37 36 72Q36 107 60.50 131.50Q85 156 120 156Q155 156 179.50 131.50Z"  horiz-adv-x="240" vert-adv-y="1000"  />

      
      <glyph glyph-name="uni2f" unicode="&#x2f;" d="M88-18L-23-18L190 708L301 708L88-18Z"  horiz-adv-x="278" vert-adv-y="1000"  />

      
      <glyph glyph-name="uni30" unicode="&#x30;" d="M280 32Q331 32 352 106Q373 180 373 360Q373 513 350.50 585.50Q328 658 280 658Q183 658 183 360Q183 194 206.50 113Q230 32 280 32M280-13Q216-13 163.50 18Q111 49 78 100.50Q45 152 27 215Q9 278 9 345Q9 435 39 515Q69 595 132.50 649Q196 703 280 703Q364 703 426.50 648.50Q489 594 517.50 514.50Q546 435 546 345Q546 254 517.50 174.50Q489 95 426.50 41Q364-13 280-13Z"  horiz-adv-x="555" vert-adv-y="1000"  />

      
      <glyph glyph-name="uni31" unicode="&#x31;" d="M238 0L80 0L80 481Q80 531 56 555Q32 579-25 575Q59 617 96 634Q206 686 238 700L238 0Z"  horiz-adv-x="300" vert-adv-y="1000"  />

      
      <glyph glyph-name="uni32" unicode="&#x32;" d="M410 0L5 0L5 14Q37 73 149 211Q272 358 272 473Q272 531 239 565Q206 599 147 599Q62 599 9 550L8 555Q31 613 91.50 658Q152 703 231 703Q313 703 366.50 656.50Q420 610 420 528Q420 408 288 276L187 174L141 126L352 126Q389 126 421 146.50Q453 167 469 200L410 0Z"  horiz-adv-x="470" vert-adv-y="1000"  />

      
      <glyph glyph-name="uni33" unicode="&#x33;" d="M299 434L299 426Q376 408 417.50 353.50Q459 299 459 223Q459 120 386 53.50Q313-13 190-13Q110-13 59.50 19.50Q9 52-6 97Q52 58 146 58Q217 58 262 101Q307 144 307 215Q307 266 274 301.50Q241 337 199.50 351Q158 365 113 367L113 383Q251 423 251 519Q251 560 220 587.50Q189 615 144 615Q69 615 20 569L20 571Q46 634 101 668.50Q156 703 228 703Q302 703 350.50 667Q399 631 399 570Q399 492 299 434Z"  horiz-adv-x="474" vert-adv-y="1000"  />

      
      <glyph glyph-name="uni34" unicode="&#x34;" d="M429 0L278 0L278 145L-17 145Q-7 213 76 340.50Q159 468 262.50 579Q366 690 429 717L429 241L467 241Q495 241 519 259Q528 265 537 278L499 145L429 145L429 0M278 241L278 488L272 488Q230 441 178.50 368Q127 295 98 241L278 241Z"  horiz-adv-x="500" vert-adv-y="1000"  />

      
      <glyph glyph-name="uni35" unicode="&#x35;" d="M398 566L135 566L111 456Q144 460 190 458Q300 454 377.50 395.50Q455 337 455 235Q455 121 381 54Q307-13 188-13Q124-13 71 10Q18 33-6 81Q63 52 134 52Q211 52 255.50 92.50Q300 133 300 200Q300 284 243 322.50Q186 361 99 361Q55 361 36 358L62 482L106 690L336 690Q403 690 423 723L398 566Z"  horiz-adv-x="461" vert-adv-y="1000"  />

      
      <glyph glyph-name="uni36" unicode="&#x36;" d="M426 696L426 693Q332 681 263.50 602.50Q195 524 179 407Q179 404 181 404Q183 404 184 405Q238 445 321 445Q418 445 472.50 391Q527 337 527 239Q527 127 456 57Q385-13 270-13Q140-13 74 68.50Q8 150 8 281Q8 465 107 584Q206 703 360 703Q400 703 426 696M172 329Q169 304 169 255Q169 144 193 89.50Q217 35 273 35Q323 35 347 85.50Q371 136 371 215Q371 243 370 262Q369 281 363 306Q357 331 346.50 346Q336 361 315.50 371.50Q295 382 267 382Q241 382 212.50 366.50Q184 351 172 329Z"  horiz-adv-x="536" vert-adv-y="1000"  />

      
      <glyph glyph-name="uni37" unicode="&#x37;" d="M207 0L97 0L296 522Q297 529 301 536Q306 548 306 552Q306 560 289 560L112 560Q58 560 29 544.50Q0 529-18 489L13 690L425 690L425 670L228 96Q217 68 210 26Q207 11 207 0Z"  horiz-adv-x="424" vert-adv-y="1000"  />

      
      <glyph glyph-name="uni38" unicode="&#x38;" d="M302 433Q350 484 350 557Q350 603 324.50 634Q299 665 256 665Q214 665 192 639.50Q170 614 170 576Q170 532 204 495Q238 458 302 433M338 421L339 416Q424 378 466 331Q508 284 508 208Q508 114 435 50.50Q362-13 242-13Q142-13 75 32.50Q8 78 8 169Q8 232 48.50 275Q89 318 150 338L149 343Q86 381 60 423Q34 465 34 519Q34 603 99.50 656.50Q165 710 261 710Q302 710 336.50 703.50Q371 697 402.50 681Q434 665 452 635Q470 605 470 562Q470 508 432 471Q394 434 338 421M180 324Q142 270 132 231Q126 207 126 181Q126 114 159.50 73Q193 32 253 32Q309 32 340.50 62.50Q372 93 372 142Q372 176 355 205Q338 234 305.50 256.50Q273 279 246.50 293Q220 307 180 324Z"  horiz-adv-x="516" vert-adv-y="1000"  />

      
      <glyph glyph-name="uni39" unicode="&#x39;" d="M86 5L86 8Q180 16 247 91Q314 166 330 284Q331 287 329 287Q327 287 326 286Q285 258 214 258Q117 258 61.50 313Q6 368 6 467Q6 577 78.50 641.50Q151 706 258 706Q375 706 440.50 631.50Q506 557 506 430Q506 243 411 117Q316-9 168-9Q102-9 86 5M338 343Q344 389 344 431Q344 661 251 661Q205 661 182.50 613Q160 565 160 493Q160 458 163.50 431.50Q167 405 177 375.50Q187 346 210 330Q233 314 267 314Q310 314 338 343Z"  horiz-adv-x="514" vert-adv-y="1000"  />

      
      <glyph glyph-name="uni3a" unicode="&#x3a;" d="M212 406Q212 371 188 347.50Q164 324 130 324Q96 324 72 347.50Q48 371 48 406Q48 440 72 464Q96 488 130 488Q164 488 188 464Q212 440 212 406M212 69Q212 34 188 10.50Q164-13 130-13Q96-13 72 10.50Q48 34 48 69Q48 103 72 127Q96 151 130 151Q164 151 188 127Q212 103 212 69Z"  horiz-adv-x="260" vert-adv-y="1000"  />

      
      <glyph glyph-name="uni3b" unicode="&#x3b;" d="M212 406Q212 371 188 347.50Q164 324 130 324Q96 324 72 347.50Q48 371 48 406Q48 440 72 464Q96 488 130 488Q164 488 188 464Q212 440 212 406M58-183L54-178Q89-149 110.50-95.50Q132-42 128-7Q95-7 71.50 16.50Q48 40 48 76Q48 110 71.50 134Q95 158 130 158Q171 158 195 130.50Q219 103 219 56Q219-27 176-92Q133-157 58-183Z"  horiz-adv-x="268" vert-adv-y="1000"  />

      
      <glyph glyph-name="uni3c" unicode="&#x3c;" d="M541 81L541-2L59 214L59 292L541 509L541 425L161 253L541 81Z"  horiz-adv-x="600" vert-adv-y="1000"  />

      
      <glyph glyph-name="uni3d" unicode="&#x3d;" d="M541 409L541 320L59 320L59 409L541 409M541 186L541 97L59 97L59 186L541 186Z"  horiz-adv-x="600" vert-adv-y="1000"  />

      
      <glyph glyph-name="uni3e" unicode="&#x3e;" d="M541 292L541 214L59-2L59 81L439 253L59 425L59 509L541 292Z"  horiz-adv-x="600" vert-adv-y="1000"  />

      
      <glyph glyph-name="uni3f" unicode="&#x3f;" d="M40 517L33 662Q135 703 226 703Q314 703 361.50 663Q409 623 409 549Q409 508 387 466.50Q365 425 333.50 391.50Q302 358 271 326Q240 294 219 261Q198 228 199 199Q165 235 165 285Q165 330 215 417Q265 504 265 551Q265 588 244 615.50Q223 643 178 643Q126 643 90.50 608Q55 573 40 517M267.50 131.50Q267.50 131.50 279.75 119.25Q292 107 292 72Q292 37 267.50 12.50Q243-12 208-12Q173-12 148.50 12.50Q124 37 124 72Q124 107 148.50 131.50Q173 156 208 156Q243 156 267.50 131.50Z"  horiz-adv-x="461" vert-adv-y="1000"  />

      
      <glyph glyph-name="uni40" unicode="&#x40;" d="M717 105L676-3Q629-30 553.50-51.50Q478-73 394-73Q204-73 103.50 20.50Q3 114 3 272Q3 439 126.50 558Q250 677 436 677Q610 677 702 594.50Q794 512 794 385Q794 257 722 188Q650 119 554 119Q480 119 452 163L451 163Q398 118 320 118Q248 118 216 168Q184 218 199 303Q214 389 274 440.50Q334 492 436 492Q546 492 600 440L561 224Q553 182 589 182Q643 182 684.50 238Q726 294 726 381Q726 482 653.50 549.50Q581 617 436 617Q327 617 243 566Q159 515 117 437Q75 359 75 272Q75 140 157 63.50Q239-13 394-13Q489-13 582.50 20.50Q676 54 717 105M447 235L474 389Q484 448 428 448Q353 448 326 297Q304 173 372 173Q435 173 447 235Z"  horiz-adv-x="800" vert-adv-y="1000"  />

      
      <glyph glyph-name="uni41" unicode="&#x41;" d="M319 701L628 0L432 0L349 191L131 191Q116 158 95 102Q83 67 89 48Q94 31 108.50 18Q123 5 139 1L139 0L-24 0L171 450L280 701L319 701M156 247L325 247L240 438L156 247Z"  horiz-adv-x="600" vert-adv-y="1000"  />

      
      <glyph glyph-name="uni42" unicode="&#x42;" d="M281 359L231 359L231 109Q231 74 253.50 54Q276 34 318 34Q381 34 408.50 79Q436 124 436 192Q436 277 391 318Q346 359 281 359M231 404L272 404Q329 404 366 439Q403 474 403 537Q403 592 375 625.50Q347 659 298 659Q269 659 250 645.50Q231 632 231 609L231 404M450 394L450 392Q523 375 571 327.50Q619 280 619 210Q619 142 589.50 95.50Q560 49 507.50 27Q455 5 403-3Q351-11 286-11Q248-11 208-8Q106-1 57 10L57 568Q57 620 40 642.50Q23 665-20 671L-20 673Q168 702 316 702Q455 702 517 660.50Q579 619 579 540Q579 484 541 448Q503 412 450 394Z"  horiz-adv-x="629" vert-adv-y="1000"  />

      
      <glyph glyph-name="uni43" unicode="&#x43;" d="M639 176L663 131Q653 115 637 97.50Q621 80 586 51.50Q551 23 494.50 4.50Q438-14 370-14Q207-14 114 82Q21 178 21 338Q21 501 126.50 605.50Q232 710 394 710Q453 710 527 690.50Q601 671 629 676L615 477Q534 662 400 662Q313 662 260 581.50Q207 501 207 350Q207 198 263 124Q319 50 416 50Q500 50 562.50 97Q625 144 639 176Z"  horiz-adv-x="640" vert-adv-y="1000"  />

      
      <glyph glyph-name="uni44" unicode="&#x44;" d="M237 576L237 158Q237 134 237.50 120.50Q238 107 243 88Q248 69 257 59.50Q266 50 283.50 42.50Q301 35 327 35Q521 35 521 351Q521 405 511 454Q501 503 479 549Q457 595 415 622Q373 649 315 649Q237 649 237 576M63 10L63 578Q63 624 44.50 642.50Q26 661-15 667L-15 668Q134 694 318 694Q499 694 604.50 608.50Q710 523 710 354Q710 179 605 84.50Q500-10 324-10Q185-10 63 10Z"  horiz-adv-x="726" vert-adv-y="1000"  />

      
      <glyph glyph-name="uni45" unicode="&#x45;" d="M566 200L542 0L61 0L61 578Q61 632 43 657Q25 682-20 690L525 690L513 495Q472 634 335 634L237 634L237 402L370 402Q416 402 430 438L430 299Q416 340 370 340L237 340L237 61L369 61Q434 61 489 100Q544 139 566 200Z"  horiz-adv-x="558" vert-adv-y="1000"  />

      
      <glyph glyph-name="uni46" unicode="&#x46;" d="M237 332L237 0L61 0L61 578Q61 632 43 657Q25 682-20 690L525 690L513 495Q472 634 335 634L237 634L237 394L378 394Q419 394 442 430L442 291Q419 332 378 332L237 332Z"  horiz-adv-x="541" vert-adv-y="1000"  />

      
      <glyph glyph-name="uni47" unicode="&#x47;" d="M663 327L663 45Q550-18 384-18Q209-18 114 77.50Q19 173 19 336Q19 502 124.50 604Q230 706 394 706Q453 706 532.50 686.50Q612 667 641 672L627 473Q621 486 612.50 502Q604 518 582.50 547.50Q561 577 537 599.50Q513 622 475.50 639Q438 656 398 656Q311 656 258 575.50Q205 495 205 344Q205 191 259.50 115.50Q314 40 410 40Q462 40 499 51L499 218Q499 266 482.50 291Q466 316 421 327L663 327Z"  horiz-adv-x="700" vert-adv-y="1000"  />

      
      <glyph glyph-name="uni48" unicode="&#x48;" d="M657 690L657 0L481 0L481 330L237 330L237 0L61 0L61 578Q61 632 43 657Q25 682-20 690L237 690L237 398L481 398L481 578Q481 632 463 657Q445 682 400 690L657 690Z"  horiz-adv-x="717" vert-adv-y="1000"  />

      
      <glyph glyph-name="uni49" unicode="&#x49;" d="M237 690L237 0L61 0L61 578Q61 632 43 657Q25 682-20 690L237 690Z"  horiz-adv-x="297" vert-adv-y="1000"  />

      
      <glyph glyph-name="uni4a" unicode="&#x4a;" d="M20 690L277 690L277-31Q277-104 225.50-162Q174-220 78-220Q28-220-13.50-201Q-55-182-75-148Q6-166 53.50-142Q101-118 101-60L101 578Q101 632 83 657Q65 682 20 690Z"  horiz-adv-x="342" vert-adv-y="1000"  />

      
      <glyph glyph-name="uni4b" unicode="&#x4b;" d="M386 440L681 0L469 0L256 323L237 307L237 0L61 0L61 578Q61 632 43 657Q25 682-20 690L237 690L237 379L305 443Q383 515 419 551Q479 611 479 641Q479 648 477 654Q475 660 470.50 664.50Q466 669 462 672Q458 675 450.50 678.50Q443 682 440 683.50Q437 685 429 688L421 690L649 690L464 515L386 440Z"  horiz-adv-x="669" vert-adv-y="1000"  />

      
      <glyph glyph-name="uni4c" unicode="&#x4c;" d="M565 172L540 0L61 0L61 578Q61 632 43 657Q25 682-20 690L241 690L241 64L380 64Q518 64 565 172Z"  horiz-adv-x="533" vert-adv-y="1000"  />

      
      <glyph glyph-name="uni4d" unicode="&#x4d;" d="M789 578L789 0L611 0L611 553L374-16L363-16L129 553L129 0L61 0L61 578Q61 632 43 657Q25 682-20 690L9 690L129 690L265 690L431 283L603 690L635 690L812 690L870 690Q825 682 807 657Q789 632 789 578Z"  horiz-adv-x="850" vert-adv-y="1000"  />

      
      <glyph glyph-name="uni4e" unicode="&#x4e;" d="M642 690L642-18L618-18L133 519L133 0L61 0L61 578Q61 632 43 657Q25 682-18 690L-20 690L225 690L573 302L573 578Q573 632 556 657Q539 682 494 690L641 690L642 690Z"  horiz-adv-x="702" vert-adv-y="1000"  />

      
      <glyph glyph-name="uni4f" unicode="&#x4f;" d="M282 59Q282 59 299.50 44Q317 29 370 29Q423 29 458 59Q493 89 507.50 142Q522 195 526.50 238Q531 281 531 336Q531 661 370 661Q209 661 209 336Q209 281 213.50 238Q218 195 232.50 142Q247 89 282 59M625.50 85Q625.50 85 576.25 33.50Q527-18 370-18Q213-18 114.50 85Q16 188 16 345Q16 502 114.50 605Q213 708 370 708Q527 708 625.50 605Q724 502 724 345Q724 188 625.50 85Z"  horiz-adv-x="740" vert-adv-y="1000"  />

      
      <glyph glyph-name="uni50" unicode="&#x50;" d="M235 295L235 0L57 0L57 568Q57 620 40 642.50Q23 665-20 671L-20 673Q168 702 312 702Q583 702 583 514Q583 463 563 423Q543 383 512 359.50Q481 336 438.50 321Q396 306 357 300.50Q318 295 277 295L235 295M235 340L264 340Q329 340 366 382.50Q403 425 403 509Q403 578 375.50 618.50Q348 659 298 659Q270 659 252.50 645.50Q235 632 235 609L235 340Z"  horiz-adv-x="583" vert-adv-y="1000"  />

      
      <glyph glyph-name="uni51" unicode="&#x51;" d="M570 31L607-11Q666-77 711-77Q729-77 745-71Q739-105 703.50-122.50Q668-140 622-140Q525-140 451-53L420-16Q394-18 380-18Q221-18 119.50 85.50Q18 189 18 345Q18 501 119.50 604.50Q221 708 380 708Q539 708 640.50 604.50Q742 501 742 345Q742 243 696.50 161Q651 79 570 31M312.50 47Q312.50 47 327.25 40Q342 33 380 33Q418 33 447.50 47Q477 61 494.50 87Q512 113 524 141Q536 169 541 207Q546 245 547.50 273Q549 301 549 336Q549 657 380 657Q211 657 211 336Q211 301 212.50 273Q214 245 219 207Q224 169 236 141Q248 113 265.50 87Q283 61 312.50 47Z"  horiz-adv-x="753" vert-adv-y="1000"  />

      
      <glyph glyph-name="uni52" unicode="&#x52;" d="M235 360L260 360Q411 360 411 513Q411 580 378 619.50Q345 659 294 659Q266 659 250.50 645.50Q235 632 235 609L235 360M454 339L652 0L446 0L276 315L273 315L235 315L235 0L58 0L58 568Q58 619 40.50 642Q23 665-20 671L-20 673Q168 702 308 702Q449 702 520 653.50Q591 605 591 518Q591 388 454 339Z"  horiz-adv-x="633" vert-adv-y="1000"  />

      
      <glyph glyph-name="uni53" unicode="&#x53;" d="M465 681L452 509Q383 651 268 651Q226 651 199.50 628.50Q173 606 173 570Q173 528 208 497Q243 466 292.50 443Q342 420 391.50 393.50Q441 367 476 319.50Q511 272 511 206Q511 102 442.50 43.50Q374-15 245-15Q208-15 147.50-4Q87 7 66 7Q38 7 24-2L24 204Q87 37 244 37Q297 37 330 60.50Q363 84 363 130Q363 173 328.50 206Q294 239 245 263.50Q196 288 147.50 315.50Q99 343 64.50 390Q30 437 30 501Q30 592 94 645.50Q158 699 260 699Q305 699 366 688.50Q427 678 444 678Q456 678 465 681Z"  horiz-adv-x="515" vert-adv-y="1000"  />

      
      <glyph glyph-name="uni54" unicode="&#x54;" d="M408 0L222 0L222 636L187 636Q115 636 66.50 597Q18 558 7 490L15 690L615 690L623 490Q612 558 563.50 597Q515 636 443 636L408 636L408 0Z"  horiz-adv-x="641" vert-adv-y="1000"  />

      
      <glyph glyph-name="uni55" unicode="&#x55;" d="M643 690L643 237Q643 118 572 50Q501-18 364-18Q57-18 57 240L57 578Q57 633 40.50 657.50Q24 682-20 690L239 690L239 217Q239 135 277 88.50Q315 42 392 42Q478 42 524 90.50Q570 139 570 237L570 578Q570 633 554 657.50Q538 682 494 690L643 690Z"  horiz-adv-x="689" vert-adv-y="1000"  />

      
      <glyph glyph-name="uni56" unicode="&#x56;" d="M365-14L342-14L118 462Q66 575 41 616Q1 678-48 690L215 690L417 248L493 434Q544 554 544 620Q544 677 487 690L665 690L610 559L365-14Z"  horiz-adv-x="640" vert-adv-y="1000"  />

      
      <glyph glyph-name="uni57" unicode="&#x57;" d="M911 560L702-14L682-14L489 441L308-14L289-14L95 463Q53 566 25 617Q-8 677-53 691L193 691L359 277Q449 510 454 524Q425 590 410 617Q375 677 331 691L577 691L742 277L801 435Q851 571 851 625Q851 678 800 691L958 691L911 560Z"  horiz-adv-x="940" vert-adv-y="1000"  />

      
      <glyph glyph-name="uni58" unicode="&#x58;" d="M427 407L689 0L465 0L305 259L117 0L25 0L264 322L92 597Q47 668 2 690L246 690Q254 679 392 462L451 540Q490 591 490 626Q490 667 453 690L640 690L427 407Z"  horiz-adv-x="673" vert-adv-y="1000"  />

      
      <glyph glyph-name="uni59" unicode="&#x59;" d="M410 295L410 0L221 0L221 295Q216 303 151.50 416Q87 529 31 621Q10 654-6 669Q-22 684-44 690L213 690L388 377L490 575Q514 614 514 643Q514 661 502.50 673.50Q491 686 473 690L622 690L410 295Z"  horiz-adv-x="610" vert-adv-y="1000"  />

      
      <glyph glyph-name="uni5a" unicode="&#x5a;" d="M588 205L568 0L5 0L5 20L355 638L227 638Q199 638 175.50 633.50Q152 629 125 616Q98 603 73.50 575.50Q49 548 29 507L44 690L566 690L566 668L231 59L381 59Q455 59 508.50 97Q562 135 588 205Z"  horiz-adv-x="594" vert-adv-y="1000"  />

      
      <glyph glyph-name="uni5b" unicode="&#x5b;" d="M347-170L83-170L83 690L347 690L347 666Q260 666 232.50 657.50Q205 649 205 612L205-85Q205-128 230.50-137Q256-146 347-146L347-170Z"  horiz-adv-x="389" vert-adv-y="1000"  />

      
      <glyph glyph-name="uni5c" unicode="&#x5c;" d="M295-18L190-18L-23 708L82 708L295-18Z"  horiz-adv-x="278" vert-adv-y="1000"  />

      
      <glyph glyph-name="uni5d" unicode="&#x5d;" d="M306-170L42-170L42-146Q133-146 158.50-137Q184-128 184-85L184 612Q184 649 156.50 657.50Q129 666 42 666L42 690L306 690L306-170Z"  horiz-adv-x="389" vert-adv-y="1000"  />

      
      <glyph glyph-name="uni5e" unicode="&#x5e;" d="M525 325L424 325L300 590L176 325L75 325L251 690L349 690L525 325Z"  horiz-adv-x="600" vert-adv-y="1000"  />

      
      <glyph glyph-name="uni5f" unicode="&#x5f;" d="M500-125L0-125L0-75L500-75L500-125Z"  horiz-adv-x="500" vert-adv-y="1000"  />

      
      <glyph glyph-name="uni60" unicode="&#x60;" d="M218 563L213 563L34 641Q-20 663-20 704Q-20 721-7 734.50Q6 748 23 748Q54 748 82 718L218 563Z"  horiz-adv-x="278" vert-adv-y="1000"  />

      
      <glyph glyph-name="uni61" unicode="&#x61;" d="M346 144L347 355Q347 400 326 422Q305 444 275 444Q177 444 177 229Q177 49 267 49Q304 49 325.50 74Q347 99 346 144M362 42L360 42Q305-13 205-13Q113-13 60.50 47.50Q8 108 8 221Q8 340 78.50 414.50Q149 489 280 489Q412 489 504 419L504 121Q504 88 523 70Q542 52 575 52Q602 52 618 58Q603 25 563.50 7Q524-11 480-11Q396-11 362 42Z"  horiz-adv-x="554" vert-adv-y="1000"  />

      
      <glyph glyph-name="uni62" unicode="&#x62;" d="M198 315L198 43Q220 34 256 34Q312 34 341 80.50Q370 127 370 240Q370 415 283 415Q244 415 221 385.50Q198 356 198 315M42 38L42 584Q42 651-20 663L198 663L198 426Q249 479 336 479Q430 479 480.50 422.50Q531 366 531 251Q531 137 458.50 62.50Q386-12 255-12Q132-12 42 38Z"  horiz-adv-x="539" vert-adv-y="1000"  />

      
      <glyph glyph-name="uni63" unicode="&#x63;" d="M450 444L435 300Q427 320 422 330.50Q417 341 403 364.50Q389 388 374.50 401Q360 414 336 425.50Q312 437 284 437Q231 437 199 390Q167 343 167 255Q167 166 210 112Q253 58 332 58Q364 58 404.50 71Q445 84 467 106Q460 87 442 65Q379-13 252-13Q134-13 71 54.50Q8 122 8 227Q8 342 83.50 413Q159 484 277 484Q364 484 450 444Z"  horiz-adv-x="456" vert-adv-y="1000"  />

      
      <glyph glyph-name="uni64" unicode="&#x64;" d="M349 154L349 334Q349 431 273 431Q230 431 203.50 380Q177 329 177 227Q177 49 266 49Q302 49 325.50 75.50Q349 102 349 154M360 42L358 42Q309-13 212-13Q115-13 61.50 48.50Q8 110 8 225Q8 333 71.50 407Q135 481 242 481Q313 481 347 453L349 453L349 584Q349 649 287 663L505 663L505 125Q505 92 524.50 73Q544 54 575 54Q593 54 619 60Q602 25 560.50 7.50Q519-10 474-10Q389-10 360 42Z"  horiz-adv-x="558" vert-adv-y="1000"  />

      
      <glyph glyph-name="uni65" unicode="&#x65;" d="M481 113Q470 84 457 71Q387-14 248-14Q137-14 72.50 49Q8 112 8 223Q8 337 85.50 411Q163 485 282 485Q315 485 345 479.50Q375 474 405 462Q435 450 452.50 424.50Q470 399 470 364Q470 320 439 287.50Q408 255 356.50 236.50Q305 218 263.50 209Q222 200 176 195Q183 129 221.50 94Q260 59 327 59Q415 59 481 113M173 235Q219 237 259 253Q297 267 312.50 295Q328 323 328 367Q328 398 311 420.50Q294 443 263 443Q235 443 215.50 423.50Q196 404 187.50 372Q179 340 175.50 313.50Q172 287 172 260Q172 243 173 235Z"  horiz-adv-x="481" vert-adv-y="1000"  />

      
      <glyph glyph-name="uni66" unicode="&#x66;" d="M229 408L229 0L73 0L73 408L16 408L16 418L73 460L73 476Q73 572 127.50 622Q182 672 268 672Q330 672 399 643L382 500Q381 502 376 514Q371 526 369 531Q367 536 361.50 548Q356 560 351.50 566.50Q347 573 340.50 583Q334 593 328 598.50Q322 604 314 610Q306 616 297.50 618.50Q289 621 280 621Q229 621 229 504L229 460L325 460L325 408L229 408Z"  horiz-adv-x="378" vert-adv-y="1000"  />

      
      <glyph glyph-name="uni67" unicode="&#x67;" d="M342 70L342 352Q342 438 264 438Q220 438 194.50 394.50Q169 351 169 241Q169 54 271 54Q312 54 342 70M497 403L497 20Q497-90 425-148Q353-206 234-206Q95-206 31-112Q97-136 180-136Q255-136 298.50-100.50Q342-65 342 2L342 21Q289 1 226 1Q121 1 63 63.50Q5 126 5 230Q5 341 75 411.50Q145 482 269 482Q419 482 497 403Z"  horiz-adv-x="537" vert-adv-y="1000"  />

      
      <glyph glyph-name="uni68" unicode="&#x68;" d="M355 113L355 322Q355 414 285 414Q246 414 222.50 384.50Q199 355 199 301L199 0L43 0L43 584Q43 652-20 663L199 663L199 417Q255 483 355 483Q423 483 467 446Q511 409 511 336L511 126Q511 94 530.50 73.50Q550 53 581 53Q606 53 631 58Q617 27 577.50 7Q538-13 488-13Q424-13 389.50 21.50Q355 56 355 113Z"  horiz-adv-x="573" vert-adv-y="1000"  />

      
      <glyph glyph-name="uni69" unicode="&#x69;" d="M178.50 687.50Q178.50 687.50 189.75 677.25Q201 667 201 630Q201 593 178.50 572.50Q156 552 118 552Q80 552 57.50 572.50Q35 593 35 630Q34 666 57 687Q80 708 118 708Q156 708 178.50 687.50M199 0L43 0L43 392Q43 460-20 471L199 471L199 0Z"  horiz-adv-x="245" vert-adv-y="1000"  />

      
      <glyph glyph-name="uni6a" unicode="&#x6a;" d="M179.50 687.50Q179.50 687.50 190.75 677.25Q202 667 202 630Q202 593 179.50 572.50Q157 552 119 552Q81 552 58.50 572.50Q36 593 36 630Q36 667 58.50 687.50Q81 708 119 708Q157 708 179.50 687.50M43-95L43 392Q43 460-20 471L199 471L199-71Q199-136 153-189Q107-242 21-242Q-82-242-115-174Q-85-183-58-183Q-12-183 15.50-159Q43-135 43-95Z"  horiz-adv-x="244" vert-adv-y="1000"  />

      
      <glyph glyph-name="uni6b" unicode="&#x6b;" d="M590 62L590 61Q558-9 454-11Q402-11 369 10.50Q336 32 307 76L223 207L193 178L193 0L37 0L37 584Q37 652-25 663L193 663L193 252L242 300L314 372Q346 412 346 429Q346 442 335 451.50Q324 461 317 464Q310 467 296 471L497 471L334 306L458 122Q503 56 552 56Q576 56 590 62Z"  horiz-adv-x="508" vert-adv-y="1000"  />

      
      <glyph glyph-name="uni6c" unicode="&#x6c;" d="M198 0L42 0L42 584Q42 652-20 663L198 663L198 0Z"  horiz-adv-x="245" vert-adv-y="1000"  />

      
      <glyph glyph-name="uni6d" unicode="&#x6d;" d="M651 115L651 319Q651 411 585 411Q548 411 525.50 383Q503 355 503 302L503 0L347 0L347 319Q347 411 281 411Q244 411 221.50 383Q199 355 199 302L199 0L43 0L43 393Q43 461-20 472L199 472L199 414Q255 480 359 480Q460 480 491 403Q554 480 663 480Q730 480 768.50 443.50Q807 407 807 333L807 119Q807 90 824 71.50Q841 53 873 53Q907 53 922 58Q907 26 871 6.50Q835-13 782-13Q716-13 683.50 23.50Q651 60 651 115Z"  horiz-adv-x="862" vert-adv-y="1000"  />

      
      <glyph glyph-name="uni6e" unicode="&#x6e;" d="M355 115L355 318Q355 410 285 410Q248 410 223.50 381.50Q199 353 199 301L199 0L43 0L43 392Q43 460-20 471L199 471L199 413Q260 479 355 479Q423 479 467 442Q511 405 511 332L511 120Q511 91 528 72Q545 53 577 53Q611 53 626 58Q611 26 575 6.50Q539-13 486-13Q420-13 387.50 23.50Q355 60 355 115Z"  horiz-adv-x="566" vert-adv-y="1000"  />

      
      <glyph glyph-name="uni6f" unicode="&#x6f;" d="M548 241Q548 122 469.50 52.50Q391-17 270-17Q151-17 79.50 50.50Q8 118 8 236Q8 353 85 422.50Q162 492 281 492Q400 492 474 425.50Q548 359 548 241M278 21Q378 21 378 238Q378 455 283 455Q251 455 229 434Q207 413 197.50 378Q188 343 184.50 313.50Q181 284 181 252Q181 226 181.50 210.50Q182 195 184.50 163Q187 131 193 110.50Q199 90 209 67Q219 44 237 32.50Q255 21 278 21Z"  horiz-adv-x="556" vert-adv-y="1000"  />

      
      <glyph glyph-name="uni70" unicode="&#x70;" d="M194 308L194 142Q194 93 219 69Q244 45 276 45Q366 45 366 235Q366 413 273 413Q241 413 217.50 386Q194 359 194 308M194-197L38-197L38 0L38 392Q38 460-25 471L181 471L181 420L185 420Q234 475 327 475Q425 475 480 413.50Q535 352 535 237Q535 129 474.50 58Q414-13 307-13Q232-13 196 25L194 25L194-197Z"  horiz-adv-x="544" vert-adv-y="1000"  />

      
      <glyph glyph-name="uni71" unicode="&#x71;" d="M340 131L340 354Q340 397 319.50 417.50Q299 438 268 438Q168 438 168 231Q168 46 257 46Q297 46 318.50 69.50Q340 93 340 131M558-197L340-197L340 26Q291-13 213-13Q116-13 61.50 47Q7 107 7 224Q7 341 76.50 411Q146 481 265 483Q413 484 496 409L496-118Q496-185 558-197Z"  horiz-adv-x="538" vert-adv-y="1000"  />

      
      <glyph glyph-name="uni72" unicode="&#x72;" d="M193 0L41 0L41 395Q41 461-20 471L193 471L193 393L195 393Q213 431 245.50 455.50Q278 480 315 480Q333 480 345 477Q357 474 364 470Q371 466 382 457L360 329Q325 397 270 397Q237 397 215 364Q193 331 193 289L193 0Z"  horiz-adv-x="362" vert-adv-y="1000"  />

      
      <glyph glyph-name="uni73" unicode="&#x73;" d="M20 17L28 163Q44 104 86 63Q128 22 196 22Q233 22 254.50 38Q276 54 276 83Q276 106 258 124.50Q240 143 212.50 155.50Q185 168 153.50 185Q122 202 94.50 220Q67 238 49 269Q31 300 31 340Q31 414 85 451.50Q139 489 221 489Q308 489 370 459L352 342Q338 391 304 418.50Q270 446 222 446Q192 446 174 432.50Q156 419 156 397Q156 374 181.50 355Q207 336 243.50 320.50Q280 305 316 285.50Q352 266 377.50 230Q403 194 403 145Q403 69 348 25Q293-19 195-19Q109-19 20 17Z"  horiz-adv-x="409" vert-adv-y="1000"  />

      
      <glyph glyph-name="uni74" unicode="&#x74;" d="M47 130L47 371Q47 428-19 434L206 586L206 471L306 471L277 417L206 417L206 153Q206 111 231 84Q256 57 305 57Q341 57 371 70Q354 35 310 10.50Q266-14 204-14Q128-14 87.50 24.50Q47 63 47 130Z"  horiz-adv-x="297" vert-adv-y="1000"  />

      
      <glyph glyph-name="uni75" unicode="&#x75;" d="M350 159L350 471L506 471L506 120Q506 91 523 73Q540 55 572 55Q606 55 621 60Q606 28 568 8.50Q530-11 478-11Q389-11 356 59Q300-9 192-9Q124-9 81 29Q38 67 38 139L38 391Q38 459-25 470L194 471L194 156Q194 67 270 67Q304 67 327 89.50Q350 112 350 159Z"  horiz-adv-x="565" vert-adv-y="1000"  />

      
      <glyph glyph-name="uni76" unicode="&#x76;" d="M247-21L240-21L28 408Q1 459-42 471L175 471L305 199L378 365Q393 398 392 425Q391 442 378 454.50Q365 467 347 471L492 471L247-21Z"  horiz-adv-x="465" vert-adv-y="1000"  />

      
      <glyph glyph-name="uni77" unicode="&#x77;" d="M759 471L548-13L536-13L384 312Q254 37 228-13L216-13L30 408Q6 462-36 471L180 471L286 223L350 365L354 375L339 408Q314 460 269 471L318 471L463 471L479 471L590 223L616 283Q625 301 637 330.50Q649 360 651 365Q661 388 661 415Q661 460 610 471L759 471Z"  horiz-adv-x="739" vert-adv-y="1000"  />

      
      <glyph glyph-name="uni78" unicode="&#x78;" d="M308 277L492 0L302 0L193 171L60 0L-13 0L160 221L43 403Q23 434 5.50 449Q-12 464-37 471L180 471L219 414L278 322L312 369Q338 400 338 425Q338 442 326.50 454.50Q315 467 297 471L459 471L308 277Z"  horiz-adv-x="464" vert-adv-y="1000"  />

      
      <glyph glyph-name="uni79" unicode="&#x79;" d="M506 194L506 30Q506-91 433-146Q360-201 249-201Q106-201 41-108Q103-137 204-137Q258-137 301.50-108.50Q345-80 345-18L345 17Q289-7 218-7Q132-7 85 34.50Q38 76 38 153L38 391Q38 459-25 470L194 471L194 158Q194 51 282 51Q317 51 345 66L350 471L506 471L506 194Z"  horiz-adv-x="563" vert-adv-y="1000"  />

      
      <glyph glyph-name="uni7a" unicode="&#x7a;" d="M437 0L15 0L15 19L248 428L184 428Q75 428 29 322L42 471L442 471L442 451L218 50L290 50Q345 50 387.50 79.50Q430 109 454 165L437 0Z"  horiz-adv-x="469" vert-adv-y="1000"  />

      
      <glyph glyph-name="uni7b" unicode="&#x7b;" d="M304-146L304-170Q211-170 168.50-142Q126-114 126-31L126 146Q126 197 110.50 221.50Q95 246 51 260Q95 272 110.50 298Q126 324 126 374L126 551Q126 635 166 662.50Q206 690 298 690L304 690L304 666Q269 655 254.50 626.50Q240 598 240 545L240 377Q240 328 224 300Q208 272 159 261L159 259Q208 248 224 220Q240 192 240 143L240-25Q240-78 254.50-106.50Q269-135 304-146Z"  horiz-adv-x="333" vert-adv-y="1000"  />

      
      <glyph glyph-name="uni7c" unicode="&#x7c;" d="M158-18L64-18L64 708L158 708L158-18Z"  horiz-adv-x="222" vert-adv-y="1000"  />

      
      <glyph glyph-name="uni7d" unicode="&#x7d;" d="M91-170L85-170L85-146Q120-135 134.50-106.50Q149-78 149-25L149 143Q149 192 165 220Q181 248 230 259L230 261Q181 272 165 300Q149 328 149 377L149 545Q149 598 134.50 626.50Q120 655 85 666L85 690Q184 690 223.50 663Q263 636 263 551L263 374Q263 324 278.50 298Q294 272 338 260Q294 246 278.50 221.50Q263 197 263 146L263-31Q263-115 222.50-142.50Q182-170 91-170Z"  horiz-adv-x="333" vert-adv-y="1000"  />

      
      <glyph glyph-name="uni7e" unicode="&#x7e;" d="M501 327L537 243Q520 210 486 190Q452 170 412 170Q372 170 300 201Q228 232 189 232Q129 232 103 173L67 262Q85 299 119.50 317.50Q154 336 192 336Q230 336 305.50 304Q381 272 411 272Q466 272 501 327Z"  horiz-adv-x="600" vert-adv-y="1000"  />

      
      <glyph glyph-name="unia1" unicode="&#xa1;" d="M162 253L170 253Q259-31 259-129Q259-178 235.50-206Q212-234 166-234Q120-234 96.50-206Q73-178 73-129Q73-72 108 68Q143 208 162 253M249 405Q249 371 225 347Q201 323 167 323Q133 323 109 347Q85 371 85 405Q85 440 109 463.50Q133 487 167 487Q201 487 225 463.50Q249 440 249 405Z"  horiz-adv-x="334" vert-adv-y="1000"  />

      
      <glyph glyph-name="unia2" unicode="&#xa2;" d="M279 170L279 532Q193 501 193 353Q193 214 279 170M335 89L335-53L279-53L279 85Q165 87 105.50 154Q46 221 46 325Q46 433 110 501.50Q174 570 279 580L279 690L335 690L335 581Q378 578 410 569Q441 559 475 543L464 419Q417 524 335 537L335 155Q342 154 358 154Q386 154 429.50 164.50Q473 175 498 191L483 171Q433 106 335 89Z"  horiz-adv-x="526" vert-adv-y="1000"  />

      
      <glyph glyph-name="unia3" unicode="&#xa3;" d="M540 115L540 112Q531 58 493 22.50Q455-13 388-13Q326-13 238 46Q215 22 179 4.50Q143-13 105-13Q65-13 40.50 8.50Q16 30 16 70Q16 118 49.50 148.50Q83 179 129 179Q162 179 192 171Q197 222 161 308L39 308L47 386L128 386Q102 454 102 512Q102 594 161.50 648.50Q221 703 316 703Q409 703 486 662L471 507Q451 567 417 608Q383 649 341 649Q255 649 255 547Q255 495 292 386L459 386L452 308L314 308Q322 274 322 254Q322 186 298 143Q306 140 341.50 124Q377 108 405.50 99.50Q434 91 462 91Q512 91 540 115M169 90Q139 111 110 111Q90 111 74.50 99.50Q59 88 59 69Q59 33 100 33Q143 33 169 90Z"  horiz-adv-x="538" vert-adv-y="1000"  />

      
      <glyph glyph-name="unia4" unicode="&#xa4;" d="M168.50 258Q168.50 258 184.25 240.50Q200 223 250 223Q300 223 331.50 258Q363 293 363 345Q363 397 331.50 432Q300 467 250 467Q200 467 168.50 432Q137 397 137 345Q137 293 168.50 258M423 112L378 157Q322 117 250 117Q180 117 122 157L77 112L17 172L62 217Q22 273 22 345Q22 415 62 473L17 518L77 578L122 534Q180 573 250 573Q320 573 378 533L423 578L483 518L438 473Q478 417 478 345Q478 275 438 217L483 172L423 112Z"  horiz-adv-x="500" vert-adv-y="1000"  />

      
      <glyph glyph-name="unia5" unicode="&#xa5;" d="M370 208L370 0L201 0L201 208L79 208L79 266L201 266L201 295L183 330L79 330L79 388L151 388L25 619Q-7 677-42 688L187 688L347 389L431 573Q452 628 452 641Q453 658 442 671Q431 684 416 688L563 688L416 388L486 388L486 330L387 330L370 295L370 266L486 266L486 208L370 208Z"  horiz-adv-x="533" vert-adv-y="1000"  />

      
      <glyph glyph-name="unia6" unicode="&#xa6;" d="M152 708L152 434L70 434L70 708L152 708M152 256L152-18L70-18L70 256L152 256Z"  horiz-adv-x="222" vert-adv-y="1000"  />

      
      <glyph glyph-name="unia7" unicode="&#xa7;" d="M73-89L73 30Q87-20 125.50-57.50Q164-95 222-95Q262-95 288-77Q314-59 314-23Q314 11 285 42.50Q256 74 151 157Q101 197 78 233Q55 269 55 316Q55 367 93 400Q131 433 188 433Q146 467 123.50 500Q101 533 101 579Q101 642 144 676Q187 710 252 710Q336 710 390 684L380 585Q363 625 329 653Q295 681 256 681Q222 681 200.50 665Q179 649 179 615Q179 587 199.50 562Q220 537 272 494L342 436Q375 408 392 390.50Q409 373 424 344.50Q439 316 439 284Q439 229 403 192.50Q367 156 314 156Q358 114 374 87.50Q390 61 390 21Q390-50 338.50-85Q287-120 224-120Q206-120 188-118Q170-116 158.50-114.50Q147-113 131-108.50Q115-104 109.50-102Q104-100 89-94.50Q74-89 73-89M310 180Q357 180 357 239Q357 272 310 322Q263 372 222 398Q204 409 182 409Q158 409 142.50 393Q127 377 127 351Q127 319 150.50 291.50Q174 264 249 205Q279 180 310 180Z"  horiz-adv-x="500" vert-adv-y="1000"  />

      
      <glyph glyph-name="unia8" unicode="&#xa8;" d="M289 592Q289 592 279.50 582.50Q270 573 244 573Q218 573 199 592Q180 611 180 637Q180 663 199 682Q218 701 244 701Q270 701 289 682Q308 663 308 637Q308 611 289 592M79 592Q79 592 69.50 582.50Q60 573 34 573Q8 573-11 592Q-30 611-30 637Q-30 663-11 682Q8 701 34 701Q60 701 79 682Q98 663 98 637Q98 611 79 592Z"  horiz-adv-x="278" vert-adv-y="1000"  />

      
      <glyph glyph-name="unia9" unicode="&#xa9;" d="M195.50 138Q195.50 138 234.75 94.50Q274 51 400 51Q526 51 604.50 138Q683 225 683 350Q683 474 605 556.50Q527 639 400 639Q273 639 195 556.50Q117 474 117 350Q117 225 195.50 138M656.50 90.50Q656.50 90.50 603.25 36.25Q550-18 400-18Q250-18 143.50 90.50Q37 199 37 349Q37 499 143.50 603.50Q250 708 400 708Q550 708 656.50 603.50Q763 499 763 349Q763 199 656.50 90.50M557 260L575 228Q570 219 560 208.50Q550 198 529.50 181.50Q509 165 476 154Q443 143 405 143Q312 143 259 197.50Q206 252 206 342Q206 435 266 494.50Q326 554 418 554Q451 554 493 542.50Q535 531 552 535L543 422Q539 431 532.50 443Q526 455 511.50 473.50Q497 492 473.50 504.50Q450 517 422 517Q372 517 342 475.50Q312 434 312 349Q312 189 430 189Q478 189 514 216Q550 243 557 260Z"  horiz-adv-x="800" vert-adv-y="1000"  />

      
      <glyph glyph-name="uniaa" unicode="&#xaa;" d="M316 667L316 486Q316 452 344 452Q351 452 368 459Q362 432 340 419.50Q318 407 291 407Q245 407 225 437Q189 406 131 406Q74 406 42 442.50Q10 479 10 547Q10 618 52 664Q94 710 174 710Q263 710 316 667M213 499L213 627Q213 652 201.50 664Q190 676 173 676Q121 676 121 552Q121 448 166 448Q186 448 199.50 461Q213 474 213 499Z"  horiz-adv-x="358" vert-adv-y="1000"  />

      
      <glyph glyph-name="uniab" unicode="&#xab;" d="M265 44L259 44L39 241L39 245L259 442L265 442L161 243L265 44M265 44L259 44L39 241L39 245L259 442L265 442L161 243L265 44M461 44L455 44L235 241L235 245L455 442L461 442L357 243L461 44M461 44L455 44L235 241L235 245L455 442L461 442L357 243L461 44Z"  horiz-adv-x="500" vert-adv-y="1000"  />

      
      <glyph glyph-name="uniac" unicode="&#xac;" d="M553 105L459 105L459 317L47 317L47 409L553 409L553 105Z"  horiz-adv-x="600" vert-adv-y="1000"  />

      
      <glyph glyph-name="uniae" unicode="&#xae;" d="M364 363L377 363Q460 363 460 446Q460 483 442.50 501Q425 519 396 519Q381 519 372.50 511Q364 503 364 491L364 363M486 348L592 165L479 165L391 330L385 330L364 330L364 166L266 166L266 476Q266 504 257.50 515.50Q249 527 228 533L228 534Q334 550 404 550Q559 550 559 449Q559 377 486 348M195.50 138Q195.50 138 234.75 94.50Q274 51 400 51Q526 51 604.50 138Q683 225 683 350Q683 474 605 556.50Q527 639 400 639Q273 639 195 556.50Q117 474 117 350Q117 225 195.50 138M656.50 90.50Q656.50 90.50 603.25 36.25Q550-18 400-18Q250-18 143.50 90.50Q37 199 37 349Q37 499 143.50 603.50Q250 708 400 708Q550 708 656.50 603.50Q763 499 763 349Q763 199 656.50 90.50Z"  horiz-adv-x="800" vert-adv-y="1000"  />

      
      <glyph glyph-name="uniaf" unicode="&#xaf;" d="M285 597L-7 597L-7 674L285 674L285 597Z"  horiz-adv-x="278" vert-adv-y="1000"  />

      
      <glyph glyph-name="unib0" unicode="&#xb0;" d="M300 460.50Q300 460.50 279 439.75Q258 419 200 419Q142 419 100 460.50Q58 502 58 561Q58 620 100 661.50Q142 703 200 703Q258 703 300 661.50Q342 620 342 561Q342 502 300 460.50M263 498Q263 498 276 511Q289 524 289 561Q289 598 263 624Q237 650 200 650Q163 650 137 624Q111 598 111 561Q111 524 137 498Q163 472 200 472Q237 472 263 498Z"  horiz-adv-x="400" vert-adv-y="1000"  />

      
      <glyph glyph-name="unib1" unicode="&#xb1;" d="M541 374L541 288L343 288L343 156L255 156L255 288L59 288L59 374L255 374L255 506L343 506L343 374L541 374M541 86L541 0L59 0L59 86L541 86Z"  horiz-adv-x="600" vert-adv-y="1000"  />

      
      <glyph glyph-name="unib2" unicode="&#xb2;" d="M322 404L284 280L22 280L22 293Q35 318 64 354L114 414Q190 502 190 570Q190 603 170 622.50Q150 642 115 642Q62 642 25 608L24 619Q37 655 77 683.50Q117 712 168 712Q221 712 256 683.50Q291 655 291 603Q291 532 207 448L121 364L244 364Q293 364 315 406L322 404Z"  horiz-adv-x="334" vert-adv-y="1000"  />

      
      <glyph glyph-name="unib3" unicode="&#xb3;" d="M94 503L94 520Q181 546 181 601Q181 624 162.50 640Q144 656 118 656Q70 656 38 625L35 633Q52 674 88 696.50Q124 719 170 719Q219 719 250.50 696.50Q282 674 282 633Q282 583 219 546Q267 534 293.50 500Q320 466 320 418Q320 353 272.50 310.50Q225 268 146 268Q45 268 15 350Q58 320 119 320Q162 320 189 345.50Q216 371 216 413Q216 457 179 478.50Q142 500 94 503Z"  horiz-adv-x="340" vert-adv-y="1000"  />

      
      <glyph glyph-name="unib4" unicode="&#xb4;" d="M244 641L65 563L60 563L196 718Q224 748 255 748Q272 748 285 734.50Q298 721 298 704Q298 663 244 641Z"  horiz-adv-x="278" vert-adv-y="1000"  />

      
      <glyph glyph-name="unib5" unicode="&#xb5;" d="M533 471L533 111Q533 83 546.50 67.50Q560 52 581 52Q601 52 612 56Q581-10 492-10Q406-10 383 61Q327-7 221-7Q178-7 148 6Q175-97 175-146Q175-181 159-208Q143-235 104-235Q64-235 47.50-207.50Q31-180 31-146Q31-97 48-3.50Q65 90 65 141L65 391Q65 459 2 470L221 471L221 162Q221 70 291 70Q329 70 353 96.50Q377 123 377 175L377 471L533 471Z"  horiz-adv-x="592" vert-adv-y="1000"  />

      
      <glyph glyph-name="unib6" unicode="&#xb6;" d="M497-138L388-138L388 661L311 661L311-138L200-138L200 319Q124 323 80 375.50Q36 428 36 505Q36 585 88 637.50Q140 690 243 690L568 690Q523 678 510 660Q497 642 497 599L497-138Z"  horiz-adv-x="611" vert-adv-y="1000"  />

      
      <glyph glyph-name="unib7" unicode="&#xb7;" d="M206 265Q206 230 182 206.50Q158 183 124 183Q90 183 66 206.50Q42 230 42 265Q42 299 66 323Q90 347 124 347Q158 347 182 323Q206 299 206 265Z"  horiz-adv-x="250" vert-adv-y="1000"  />

      
      <glyph glyph-name="unib8" unicode="&#xb8;" d="M24-200L40-163Q73-177 112-177Q129-177 142.50-166Q156-155 156-139Q156-100 109-100Q95-100 84-104L73-96L116 0L158 0L130-64Q142-60 167-60Q202-60 228-76.50Q254-93 254-128Q254-217 112-217Q67-217 24-200Z"  horiz-adv-x="278" vert-adv-y="1000"  />

      
      <glyph glyph-name="unib9" unicode="&#xb9;" d="M226 728L226 280L118 280L118 571Q118 603 105 621Q92 639 53 641L226 728Z"  horiz-adv-x="300" vert-adv-y="1000"  />

      
      <glyph glyph-name="uniba" unicode="&#xba;" d="M342 558Q342 487 294.50 446.50Q247 406 175 406Q103 406 60 446Q17 486 17 555Q17 625 63 665.50Q109 706 181 706Q253 706 297.50 667Q342 628 342 558M180 436Q234 436 234 556Q234 677 183 677Q127 677 127 564Q127 436 180 436Z"  horiz-adv-x="359" vert-adv-y="1000"  />

      
      <glyph glyph-name="unibb" unicode="&#xbb;" d="M461 245L461 241L241 44L235 44L339 243L235 442L241 442L461 245M461 245L461 241L241 44L235 44L339 243L235 442L241 442L461 245M265 245L265 241L45 44L39 44L143 243L39 442L45 442L265 245M265 245L265 241L45 44L39 44L143 243L39 442L45 442L265 245Z"  horiz-adv-x="500" vert-adv-y="1000"  />

      
      <glyph glyph-name="unibc" unicode="&#xbc;" d="M627 716L185-26L128-26L570 716L627 716M226 728L226 280L118 280L118 571Q118 603 105 621Q92 639 53 641L226 728M651 86L651-3L549-3L549 86L364 86Q367 122 411.50 191Q456 260 496 305Q583 406 651 442L651 155L671 155Q688 155 709 176Q721 190 726 198L694 86L651 86M447 155L549 155L549 295Q494 231 447 155Z"  horiz-adv-x="750" vert-adv-y="1000"  />

      
      <glyph glyph-name="unibd" unicode="&#xbd;" d="M755 124L717 0L455 0L455 13Q468 38 497 74L547 134Q623 222 623 290Q623 323 603 342.50Q583 362 548 362Q495 362 458 328L457 339Q470 375 510 403.50Q550 432 601 432Q654 432 689 403.50Q724 375 724 323Q724 252 640 168L554 84L677 84Q726 84 748 126L755 124M611 716L169-26L112-26L554 716L611 716M226 728L226 280L118 280L118 571Q118 603 105 621Q92 639 53 641L226 728Z"  horiz-adv-x="750" vert-adv-y="1000"  />

      
      <glyph glyph-name="unibe" unicode="&#xbe;" d="M675 86L675-3L573-3L573 86L386 86Q389 123 433.50 190.50Q478 258 520 305Q611 410 675 444L675 155L695 155Q712 155 733 176Q745 190 750 198L718 86L675 86M653 716L211-26L154-26L596 716L653 716M471 155L573 155L573 295Q518 231 471 155M86 505L86 518Q173 544 173 601Q173 627 155 642.50Q137 658 110 658Q59 658 28 631L27 635Q41 671 79 695Q117 719 162 719Q211 719 242.50 696.50Q274 674 274 633Q274 580 209 542Q258 530 285 496.50Q312 463 312 416Q312 351 266.50 309.50Q221 268 146 268Q37 268 7 350Q50 320 111 320Q154 320 181 345.50Q208 371 208 413Q208 457 171 479.50Q134 502 86 505Z"  horiz-adv-x="750" vert-adv-y="1000"  />

      
      <glyph glyph-name="unibf" unicode="&#xbf;" d="M348 407Q348 373 324 349Q300 325 266 325Q232 325 208 349Q184 373 184 407Q184 442 208 465.50Q232 489 266 489Q300 489 324 465.50Q348 442 348 407M432-41L439-186Q337-227 246-227Q168-227 115.50-185Q63-143 63-72Q63-22 95.50 30.50Q128 83 166.50 119.50Q205 156 238.50 199.50Q272 243 273 277Q303 239 303 189Q303 149 255 60.50Q207-28 207-67Q207-104 228-135.50Q249-167 294-167Q350-167 381-134.50Q412-102 432-41Z"  horiz-adv-x="500" vert-adv-y="1000"  />

      
      <glyph glyph-name="unic0" unicode="&#xc0;" d="M319 701L628 0L432 0L349 191L131 191Q116 158 95 102Q83 67 89 48Q94 31 108.50 18Q123 5 139 1L139 0L-24 0L171 450L280 701L319 701M156 247L325 247L240 438L156 247M419 782L414 782L235 860Q181 882 181 923Q181 940 194 953.50Q207 967 224 967Q254 967 283 937L419 782Z"  horiz-adv-x="600" vert-adv-y="1000"  />

      
      <glyph glyph-name="unic1" unicode="&#xc1;" d="M319 701L628 0L432 0L349 191L131 191Q116 158 95 102Q83 67 89 48Q94 31 108.50 18Q123 5 139 1L139 0L-24 0L171 450L280 701L319 701M156 247L325 247L240 438L156 247M365 860L186 782L181 782L317 937Q345 967 376 967Q393 967 406 953.50Q419 940 419 923Q419 882 365 860Z"  horiz-adv-x="600" vert-adv-y="1000"  />

      
      <glyph glyph-name="unic2" unicode="&#xc2;" d="M319 701L628 0L432 0L349 191L131 191Q116 158 95 102Q83 67 89 48Q94 31 108.50 18Q123 5 139 1L139 0L-24 0L171 450L280 701L319 701M156 247L325 247L240 438L156 247M467 782L463 782L302 875L135 782L133 782L256 956L345 956L467 782Z"  horiz-adv-x="600" vert-adv-y="1000"  />

      
      <glyph glyph-name="unic3" unicode="&#xc3;" d="M319 701L628 0L432 0L349 191L131 191Q116 158 95 102Q83 67 89 48Q94 31 108.50 18Q123 5 139 1L139 0L-24 0L171 450L280 701L319 701M156 247L325 247L240 438L156 247M440 927L483 927Q478 871 446 836Q414 801 362 801Q332 801 282 826.50Q232 852 210 852Q190 852 175 836.50Q160 821 159 801L117 801Q123 859 152.50 893Q182 927 236 927Q271 927 321 902.50Q371 878 388 878Q438 878 440 927Z"  horiz-adv-x="600" vert-adv-y="1000"  />

      
      <glyph glyph-name="unic4" unicode="&#xc4;" d="M319 701L628 0L432 0L349 191L131 191Q116 158 95 102Q83 67 89 48Q94 31 108.50 18Q123 5 139 1L139 0L-24 0L171 450L280 701L319 701M156 247L325 247L240 438L156 247M256 770Q256 770 246.50 760.50Q237 751 211 751Q185 751 166 770Q147 789 147 815Q147 841 166 860Q185 879 211 879Q237 879 256 860Q275 841 275 815Q275 789 256 770M425 770Q425 770 415.50 760.50Q406 751 380 751Q354 751 335 770Q316 789 316 815Q316 841 335 860Q354 879 380 879Q406 879 425 860Q444 841 444 815Q444 789 425 770Z"  horiz-adv-x="600" vert-adv-y="1000"  />

      
      <glyph glyph-name="unic5" unicode="&#xc5;" d="M319 701L628 0L432 0L349 191L131 191Q116 158 95 102Q83 67 89 48Q94 31 108.50 18Q123 5 139 1L139 0L-24 0L171 450L280 701L319 701M156 247L325 247L240 438L156 247M376.50 795.50Q376.50 795.50 360.75 779.75Q345 764 300 764Q255 764 223.50 795.50Q192 827 192 872Q192 917 223.50 948.50Q255 980 300 980Q345 980 376.50 948.50Q408 917 408 872Q408 827 376.50 795.50M258 828Q258 828 267 819Q276 810 300 810Q324 810 342 828Q360 846 360 872Q360 898 342 916Q324 934 300 934Q276 934 258 916Q240 898 240 872Q240 846 258 828Z"  horiz-adv-x="600" vert-adv-y="1000"  />

      
      <glyph glyph-name="unic6" unicode="&#xc6;" d="M687 61Q752 61 807 100Q862 139 884 200L860 0L379 0L379 191L153 191Q138 158 117 102Q105 67 111 48Q116 31 130.50 18Q145 5 161 1L161 0L-2 0L193 450L268 627Q279 667 241 680Q229 684 193 690L294 690L298 690L316 690L361 690L371 690L843 690L831 495Q790 634 653 634L555 634L555 402L688 402Q734 402 748 438L748 299Q734 340 688 340L555 340L555 61L687 61M178 247L379 247L380 620Q380 633 379 638L341 638L262 438L178 247Z"  horiz-adv-x="907" vert-adv-y="1000"  />

      
      <glyph glyph-name="unic7" unicode="&#xc7;" d="M639 176L663 131Q653 115 637 97.50Q621 80 586 51.50Q551 23 494.50 4.50Q438-14 370-14Q207-14 114 82Q21 178 21 338Q21 501 126.50 605.50Q232 710 394 710Q453 710 527 690.50Q601 671 629 676L615 477Q534 662 400 662Q313 662 260 581.50Q207 501 207 350Q207 198 263 124Q319 50 416 50Q500 50 562.50 97Q625 144 639 176M205-200L221-163Q254-177 293-177Q310-177 323.50-166Q337-155 337-139Q337-100 290-100Q276-100 265-104L254-96L297 0L339 0L311-64Q323-60 348-60Q383-60 409-76.50Q435-93 435-128Q435-217 293-217Q248-217 205-200Z"  horiz-adv-x="640" vert-adv-y="1000"  />

      
      <glyph glyph-name="unic8" unicode="&#xc8;" d="M566 200L542 0L61 0L61 578Q61 632 43 657Q25 682-20 690L525 690L513 495Q472 634 335 634L237 634L237 402L370 402Q416 402 430 438L430 299Q416 340 370 340L237 340L237 61L369 61Q434 61 489 100Q544 139 566 200M398 782L393 782L214 860Q160 882 160 923Q160 940 173 953.50Q186 967 203 967Q234 967 262 937L398 782Z"  horiz-adv-x="558" vert-adv-y="1000"  />

      
      <glyph glyph-name="unic9" unicode="&#xc9;" d="M566 200L542 0L61 0L61 578Q61 632 43 657Q25 682-20 690L525 690L513 495Q472 634 335 634L237 634L237 402L370 402Q416 402 430 438L430 299Q416 340 370 340L237 340L237 61L369 61Q434 61 489 100Q544 139 566 200M344 860L165 782L160 782L296 937Q325 967 355 967Q372 967 385 953.50Q398 940 398 923Q398 882 344 860Z"  horiz-adv-x="558" vert-adv-y="1000"  />

      
      <glyph glyph-name="unica" unicode="&#xca;" d="M566 200L542 0L61 0L61 578Q61 632 43 657Q25 682-20 690L525 690L513 495Q472 634 335 634L237 634L237 402L370 402Q416 402 430 438L430 299Q416 340 370 340L237 340L237 61L369 61Q434 61 489 100Q544 139 566 200M446 782L442 782L281 875L114 782L112 782L235 956L324 956L446 782Z"  horiz-adv-x="558" vert-adv-y="1000"  />

      
      <glyph glyph-name="unicb" unicode="&#xcb;" d="M566 200L542 0L61 0L61 578Q61 632 43 657Q25 682-20 690L525 690L513 495Q472 634 335 634L237 634L237 402L370 402Q416 402 430 438L430 299Q416 340 370 340L237 340L237 61L369 61Q434 61 489 100Q544 139 566 200M429 811Q429 811 419.50 801.50Q410 792 384 792Q358 792 339 811Q320 830 320 856Q320 882 339 901Q358 920 384 920Q410 920 429 901Q448 882 448 856Q448 830 429 811M219 811Q219 811 209.50 801.50Q200 792 174 792Q148 792 129 811Q110 830 110 856Q110 882 129 901Q148 920 174 920Q200 920 219 901Q238 882 238 856Q238 830 219 811Z"  horiz-adv-x="558" vert-adv-y="1000"  />

      
      <glyph glyph-name="unicc" unicode="&#xcc;" d="M237 690L237 0L61 0L61 578Q61 632 43 657Q25 682-20 690L237 690M267 782L262 782L83 860Q29 882 29 923Q29 940 42 953.50Q55 967 72 967Q103 967 131 937L267 782Z"  horiz-adv-x="297" vert-adv-y="1000"  />

      
      <glyph glyph-name="unicd" unicode="&#xcd;" d="M237 690L237 0L61 0L61 578Q61 632 43 657Q25 682-20 690L237 690M214 860L35 782L30 782L166 937Q194 967 225 967Q242 967 255 953.50Q268 940 268 923Q268 882 214 860Z"  horiz-adv-x="297" vert-adv-y="1000"  />

      
      <glyph glyph-name="unice" unicode="&#xce;" d="M237 690L237 0L61 0L61 578Q61 632 43 657Q25 682-20 690L237 690M315 782L311 782L150 875L-17 782L-19 782L104 956L193 956L315 782Z"  horiz-adv-x="297" vert-adv-y="1000"  />

      
      <glyph glyph-name="unicf" unicode="&#xcf;" d="M237 690L237 0L61 0L61 578Q61 632 43 657Q25 682-20 690L237 690M298 811Q298 811 288.50 801.50Q279 792 253 792Q227 792 208 811Q189 830 189 856Q189 882 208 901Q227 920 253 920Q279 920 298 901Q317 882 317 856Q317 830 298 811M88 811Q88 811 78.50 801.50Q69 792 43 792Q17 792-2 811Q-21 830-21 856Q-21 882-2 901Q17 920 43 920Q69 920 88 901Q107 882 107 856Q107 830 88 811Z"  horiz-adv-x="297" vert-adv-y="1000"  />

      
      <glyph glyph-name="unid0" unicode="&#xd0;" d="M237 576L237 158Q237 134 237.50 120.50Q238 107 243 88Q248 69 257 59.50Q266 50 283.50 42.50Q301 35 327 35Q521 35 521 351Q521 405 511 454Q501 503 479 549Q457 595 415 622Q373 649 315 649Q237 649 237 576M63 10L63 578Q63 624 44.50 642.50Q26 661-15 667L-15 668Q134 694 318 694Q499 694 604.50 608.50Q710 523 710 354Q710 179 605 84.50Q500-10 324-10Q185-10 63 10M318 388L318 300L-11 300L-11 388L318 388Z"  horiz-adv-x="726" vert-adv-y="1000"  />

      
      <glyph glyph-name="unid1" unicode="&#xd1;" d="M642 690L642-18L618-18L133 519L133 0L61 0L61 578Q61 632 43 657Q25 682-18 690L-20 690L225 690L573 302L573 578Q573 632 556 657Q539 682 494 690L641 690L642 690M491 927L534 927Q529 871 497 836Q465 801 413 801Q383 801 333 826.50Q283 852 261 852Q241 852 226 836.50Q211 821 210 801L168 801Q174 859 203.50 893Q233 927 287 927Q322 927 372 902.50Q422 878 439 878Q489 878 491 927Z"  horiz-adv-x="702" vert-adv-y="1000"  />

      
      <glyph glyph-name="unid2" unicode="&#xd2;" d="M282 59Q282 59 299.50 44Q317 29 370 29Q423 29 458 59Q493 89 507.50 142Q522 195 526.50 238Q531 281 531 336Q531 661 370 661Q209 661 209 336Q209 281 213.50 238Q218 195 232.50 142Q247 89 282 59M625.50 85Q625.50 85 576.25 33.50Q527-18 370-18Q213-18 114.50 85Q16 188 16 345Q16 502 114.50 605Q213 708 370 708Q527 708 625.50 605Q724 502 724 345Q724 188 625.50 85M489 782L484 782L305 860Q251 882 251 923Q251 940 264 953.50Q277 967 294 967Q324 967 353 937L489 782Z"  horiz-adv-x="740" vert-adv-y="1000"  />

      
      <glyph glyph-name="unid3" unicode="&#xd3;" d="M282 59Q282 59 299.50 44Q317 29 370 29Q423 29 458 59Q493 89 507.50 142Q522 195 526.50 238Q531 281 531 336Q531 661 370 661Q209 661 209 336Q209 281 213.50 238Q218 195 232.50 142Q247 89 282 59M625.50 85Q625.50 85 576.25 33.50Q527-18 370-18Q213-18 114.50 85Q16 188 16 345Q16 502 114.50 605Q213 708 370 708Q527 708 625.50 605Q724 502 724 345Q724 188 625.50 85M435 860L256 782L251 782L387 937Q415 967 446 967Q463 967 476 953.50Q489 940 489 923Q489 882 435 860Z"  horiz-adv-x="740" vert-adv-y="1000"  />

      
      <glyph glyph-name="unid4" unicode="&#xd4;" d="M282 59Q282 59 299.50 44Q317 29 370 29Q423 29 458 59Q493 89 507.50 142Q522 195 526.50 238Q531 281 531 336Q531 661 370 661Q209 661 209 336Q209 281 213.50 238Q218 195 232.50 142Q247 89 282 59M625.50 85Q625.50 85 576.25 33.50Q527-18 370-18Q213-18 114.50 85Q16 188 16 345Q16 502 114.50 605Q213 708 370 708Q527 708 625.50 605Q724 502 724 345Q724 188 625.50 85M537 782L533 782L372 875L205 782L203 782L326 956L415 956L537 782Z"  horiz-adv-x="740" vert-adv-y="1000"  />

      
      <glyph glyph-name="unid5" unicode="&#xd5;" d="M282 59Q282 59 299.50 44Q317 29 370 29Q423 29 458 59Q493 89 507.50 142Q522 195 526.50 238Q531 281 531 336Q531 661 370 661Q209 661 209 336Q209 281 213.50 238Q218 195 232.50 142Q247 89 282 59M625.50 85Q625.50 85 576.25 33.50Q527-18 370-18Q213-18 114.50 85Q16 188 16 345Q16 502 114.50 605Q213 708 370 708Q527 708 625.50 605Q724 502 724 345Q724 188 625.50 85M510 927L553 927Q548 871 516 836Q484 801 432 801Q402 801 352 826.50Q302 852 280 852Q260 852 245 836.50Q230 821 229 801L187 801Q193 859 222.50 893Q252 927 306 927Q341 927 391 902.50Q441 878 458 878Q508 878 510 927Z"  horiz-adv-x="740" vert-adv-y="1000"  />

      
      <glyph glyph-name="unid6" unicode="&#xd6;" d="M282 59Q282 59 299.50 44Q317 29 370 29Q423 29 458 59Q493 89 507.50 142Q522 195 526.50 238Q531 281 531 336Q531 661 370 661Q209 661 209 336Q209 281 213.50 238Q218 195 232.50 142Q247 89 282 59M625.50 85Q625.50 85 576.25 33.50Q527-18 370-18Q213-18 114.50 85Q16 188 16 345Q16 502 114.50 605Q213 708 370 708Q527 708 625.50 605Q724 502 724 345Q724 188 625.50 85M520 811Q520 811 510.50 801.50Q501 792 475 792Q449 792 430 811Q411 830 411 856Q411 882 430 901Q449 920 475 920Q501 920 520 901Q539 882 539 856Q539 830 520 811M310 811Q310 811 300.50 801.50Q291 792 265 792Q239 792 220 811Q201 830 201 856Q201 882 220 901Q239 920 265 920Q291 920 310 901Q329 882 329 856Q329 830 310 811Z"  horiz-adv-x="740" vert-adv-y="1000"  />

      
      <glyph glyph-name="unid7" unicode="&#xd7;" d="M522 86L461 24L300 191L139 24L78 86L240 253L78 420L139 482L300 316L461 482L522 420L359 253L522 86Z"  horiz-adv-x="600" vert-adv-y="1000"  />

      
      <glyph glyph-name="unid8" unicode="&#xd8;" d="M219-124L121-124L526 801L625 802L219-124M282 59Q282 59 299.50 44Q317 29 370 29Q423 29 458 59Q493 89 507.50 142Q522 195 526.50 238Q531 281 531 336Q531 661 370 661Q209 661 209 336Q209 281 213.50 238Q218 195 232.50 142Q247 89 282 59M625.50 85Q625.50 85 576.25 33.50Q527-18 370-18Q213-18 114.50 85Q16 188 16 345Q16 502 114.50 605Q213 708 370 708Q527 708 625.50 605Q724 502 724 345Q724 188 625.50 85Z"  horiz-adv-x="740" vert-adv-y="1000"  />

      
      <glyph glyph-name="unid9" unicode="&#xd9;" d="M643 690L643 237Q643 118 572 50Q501-18 364-18Q57-18 57 240L57 578Q57 633 40.50 657.50Q24 682-20 690L239 690L239 217Q239 135 277 88.50Q315 42 392 42Q478 42 524 90.50Q570 139 570 237L570 578Q570 633 554 657.50Q538 682 494 690L643 690M463 782L458 782L279 860Q225 882 225 923Q225 940 238 953.50Q251 967 268 967Q298 967 327 937L463 782Z"  horiz-adv-x="689" vert-adv-y="1000"  />

      
      <glyph glyph-name="unida" unicode="&#xda;" d="M643 690L643 237Q643 118 572 50Q501-18 364-18Q57-18 57 240L57 578Q57 633 40.50 657.50Q24 682-20 690L239 690L239 217Q239 135 277 88.50Q315 42 392 42Q478 42 524 90.50Q570 139 570 237L570 578Q570 633 554 657.50Q538 682 494 690L643 690M409 860L230 782L225 782L361 937Q390 967 420 967Q437 967 450 953.50Q463 940 463 923Q463 882 409 860Z"  horiz-adv-x="689" vert-adv-y="1000"  />

      
      <glyph glyph-name="unidb" unicode="&#xdb;" d="M643 690L643 237Q643 118 572 50Q501-18 364-18Q57-18 57 240L57 578Q57 633 40.50 657.50Q24 682-20 690L239 690L239 217Q239 135 277 88.50Q315 42 392 42Q478 42 524 90.50Q570 139 570 237L570 578Q570 633 554 657.50Q538 682 494 690L643 690M511 782L507 782L346 875L179 782L177 782L300 956L389 956L511 782Z"  horiz-adv-x="689" vert-adv-y="1000"  />

      
      <glyph glyph-name="unidc" unicode="&#xdc;" d="M643 690L643 237Q643 118 572 50Q501-18 364-18Q57-18 57 240L57 578Q57 633 40.50 657.50Q24 682-20 690L239 690L239 217Q239 135 277 88.50Q315 42 392 42Q478 42 524 90.50Q570 139 570 237L570 578Q570 633 554 657.50Q538 682 494 690L643 690M494 811Q494 811 484.50 801.50Q475 792 449 792Q423 792 404 811Q385 830 385 856Q385 882 404 901Q423 920 449 920Q475 920 494 901Q513 882 513 856Q513 830 494 811M284 811Q284 811 274.50 801.50Q265 792 239 792Q213 792 194 811Q175 830 175 856Q175 882 194 901Q213 920 239 920Q265 920 284 901Q303 882 303 856Q303 830 284 811Z"  horiz-adv-x="689" vert-adv-y="1000"  />

      
      <glyph glyph-name="unidd" unicode="&#xdd;" d="M410 295L410 0L221 0L221 295Q216 303 151.50 416Q87 529 31 621Q10 654-6 669Q-22 684-44 690L213 690L388 377L490 575Q514 614 514 643Q514 661 502.50 673.50Q491 686 473 690L622 690L410 295M370 860L191 782L186 782L322 937Q350 967 381 967Q398 967 411 953.50Q424 940 424 923Q424 882 370 860Z"  horiz-adv-x="610" vert-adv-y="1000"  />

      
      <glyph glyph-name="unide" unicode="&#xde;" d="M510 372L510 371L510 368Q510 306 490.50 260Q471 214 442 187.50Q413 161 369.50 145.50Q326 130 287 125Q248 120 200 120Q193 120 180 121Q167 122 161 122L161 0L22 0L22 620Q22 679 8 710Q-6 741-39 750L161 750L161 627Q167 627 180 627.50Q193 628 200 628Q510 628 510 372M340 349L340 395Q340 473 314 524Q288 575 227 575Q181 575 161 541L161 203Q182 170 227 170Q288 170 314 221Q340 272 340 349Z"  horiz-adv-x="535" vert-adv-y="1000"  />

      
      <glyph glyph-name="unidf" unicode="&#xdf;" d="M267 6L267 8Q317 16 348 70Q379 124 379 196Q379 285 358.50 327.50Q338 370 288 391L288 397Q359 424 359 543Q359 663 286 663Q252 663 234.50 638Q217 613 217 570L217 0L12 0Q69 20 69 87L69 472Q69 583 127.50 645.50Q186 708 294 708Q383 708 443 663.50Q503 619 503 550Q503 491 470 454Q437 417 386 401L386 400Q539 357 539 201Q539 113 487 51Q435-11 346-11Q296-11 267 6Z"  horiz-adv-x="574" vert-adv-y="1000"  />

      
      <glyph glyph-name="unie0" unicode="&#xe0;" d="M346 144L347 355Q347 400 326 422Q305 444 275 444Q177 444 177 229Q177 49 267 49Q304 49 325.50 74Q347 99 346 144M362 42L360 42Q305-13 205-13Q113-13 60.50 47.50Q8 108 8 221Q8 340 78.50 414.50Q149 489 280 489Q412 489 504 419L504 121Q504 88 523 70Q542 52 575 52Q602 52 618 58Q603 25 563.50 7Q524-11 480-11Q396-11 362 42M396 563L391 563L212 641Q158 663 158 704Q158 721 171 734.50Q184 748 201 748Q232 748 260 718L396 563Z"  horiz-adv-x="554" vert-adv-y="1000"  />

      
      <glyph glyph-name="unie1" unicode="&#xe1;" d="M346 144L347 355Q347 400 326 422Q305 444 275 444Q177 444 177 229Q177 49 267 49Q304 49 325.50 74Q347 99 346 144M362 42L360 42Q305-13 205-13Q113-13 60.50 47.50Q8 108 8 221Q8 340 78.50 414.50Q149 489 280 489Q412 489 504 419L504 121Q504 88 523 70Q542 52 575 52Q602 52 618 58Q603 25 563.50 7Q524-11 480-11Q396-11 362 42M342 641L163 563L158 563L294 718Q322 748 353 748Q370 748 383 734.50Q396 721 396 704Q396 663 342 641Z"  horiz-adv-x="554" vert-adv-y="1000"  />

      
      <glyph glyph-name="unie2" unicode="&#xe2;" d="M346 144L347 355Q347 400 326 422Q305 444 275 444Q177 444 177 229Q177 49 267 49Q304 49 325.50 74Q347 99 346 144M362 42L360 42Q305-13 205-13Q113-13 60.50 47.50Q8 108 8 221Q8 340 78.50 414.50Q149 489 280 489Q412 489 504 419L504 121Q504 88 523 70Q542 52 575 52Q602 52 618 58Q603 25 563.50 7Q524-11 480-11Q396-11 362 42M444 563L440 563L279 656L112 563L110 563L233 737L322 737L444 563Z"  horiz-adv-x="554" vert-adv-y="1000"  />

      
      <glyph glyph-name="unie3" unicode="&#xe3;" d="M346 144L347 355Q347 400 326 422Q305 444 275 444Q177 444 177 229Q177 49 267 49Q304 49 325.50 74Q347 99 346 144M362 42L360 42Q305-13 205-13Q113-13 60.50 47.50Q8 108 8 221Q8 340 78.50 414.50Q149 489 280 489Q412 489 504 419L504 121Q504 88 523 70Q542 52 575 52Q602 52 618 58Q603 25 563.50 7Q524-11 480-11Q396-11 362 42M417 708L460 708Q455 652 423 617Q391 582 339 582Q309 582 259 607.50Q209 633 187 633Q167 633 152 617.50Q137 602 136 582L94 582Q100 640 129.50 674Q159 708 213 708Q248 708 298 683.50Q348 659 365 659Q415 659 417 708Z"  horiz-adv-x="554" vert-adv-y="1000"  />

      
      <glyph glyph-name="unie4" unicode="&#xe4;" d="M346 144L347 355Q347 400 326 422Q305 444 275 444Q177 444 177 229Q177 49 267 49Q304 49 325.50 74Q347 99 346 144M362 42L360 42Q305-13 205-13Q113-13 60.50 47.50Q8 108 8 221Q8 340 78.50 414.50Q149 489 280 489Q412 489 504 419L504 121Q504 88 523 70Q542 52 575 52Q602 52 618 58Q603 25 563.50 7Q524-11 480-11Q396-11 362 42M427 592Q427 592 417.50 582.50Q408 573 382 573Q356 573 337 592Q318 611 318 637Q318 663 337 682Q356 701 382 701Q408 701 427 682Q446 663 446 637Q446 611 427 592M217 592Q217 592 207.50 582.50Q198 573 172 573Q146 573 127 592Q108 611 108 637Q108 663 127 682Q146 701 172 701Q198 701 217 682Q236 663 236 637Q236 611 217 592Z"  horiz-adv-x="554" vert-adv-y="1000"  />

      
      <glyph glyph-name="unie5" unicode="&#xe5;" d="M346 144L347 355Q347 400 326 422Q305 444 275 444Q177 444 177 229Q177 49 267 49Q304 49 325.50 74Q347 99 346 144M362 42L360 42Q305-13 205-13Q113-13 60.50 47.50Q8 108 8 221Q8 340 78.50 414.50Q149 489 280 489Q412 489 504 419L504 121Q504 88 523 70Q542 52 575 52Q602 52 618 58Q603 25 563.50 7Q524-11 480-11Q396-11 362 42M353.50 576.50Q353.50 576.50 337.75 560.75Q322 545 277 545Q232 545 200.50 576.50Q169 608 169 653Q169 698 200.50 729.50Q232 761 277 761Q322 761 353.50 729.50Q385 698 385 653Q385 608 353.50 576.50M235 609Q235 609 244 600Q253 591 277 591Q301 591 319 609Q337 627 337 653Q337 679 319 697Q301 715 277 715Q253 715 235 697Q217 679 217 653Q217 627 235 609Z"  horiz-adv-x="554" vert-adv-y="1000"  />

      
      <glyph glyph-name="unie6" unicode="&#xe6;" d="M642-9L641-10Q641-9 642-9M646 58Q734 58 800 112Q789 83 776 70Q724 8 637-8Q639-10 641-10Q483-30 418 28Q402 43 389 64Q376 85 372 98L367 112Q358 46 307.50 15Q257-16 196-16Q104-16 51.50 44.50Q-1 105-1 218Q-1 337 70 414Q141 491 271 491Q343 491 408 460L408 282Q417 484 601 484Q634 484 664 478.50Q694 473 724 461Q754 449 771.50 423.50Q789 398 789 363Q789 319 758 286.50Q727 254 675.50 235.50Q624 217 582.50 208Q541 199 495 194Q502 128 540.50 93Q579 58 646 58M258 46Q295 46 316.50 71Q338 96 337 141L338 352Q338 397 317 419Q296 441 266 441Q168 441 168 226Q168 46 258 46M582 442Q554 442 534.50 422.50Q515 403 506.50 371Q498 339 494.50 312.50Q491 286 491 259Q491 242 492 234Q538 236 578 252Q616 266 631.50 294Q647 322 647 366Q647 397 630 419.50Q613 442 582 442Z"  horiz-adv-x="842" vert-adv-y="1000"  />

      
      <glyph glyph-name="unie7" unicode="&#xe7;" d="M450 444L435 300Q427 320 422 330.50Q417 341 403 364.50Q389 388 374.50 401Q360 414 336 425.50Q312 437 284 437Q231 437 199 390Q167 343 167 255Q167 166 210 112Q253 58 332 58Q364 58 404.50 71Q445 84 467 106Q460 87 442 65Q379-13 252-13Q134-13 71 54.50Q8 122 8 227Q8 342 83.50 413Q159 484 277 484Q364 484 450 444M113-200L129-163Q162-177 201-177Q218-177 231.50-166Q245-155 245-139Q245-100 198-100Q184-100 173-104L162-96L205 0L247 0L219-64Q231-60 256-60Q291-60 317-76.50Q343-93 343-128Q343-217 201-217Q156-217 113-200Z"  horiz-adv-x="456" vert-adv-y="1000"  />

      
      <glyph glyph-name="unie8" unicode="&#xe8;" d="M481 113Q470 84 457 71Q387-14 248-14Q137-14 72.50 49Q8 112 8 223Q8 337 85.50 411Q163 485 282 485Q315 485 345 479.50Q375 474 405 462Q435 450 452.50 424.50Q470 399 470 364Q470 320 439 287.50Q408 255 356.50 236.50Q305 218 263.50 209Q222 200 176 195Q183 129 221.50 94Q260 59 327 59Q415 59 481 113M173 235Q219 237 259 253Q297 267 312.50 295Q328 323 328 367Q328 398 311 420.50Q294 443 263 443Q235 443 215.50 423.50Q196 404 187.50 372Q179 340 175.50 313.50Q172 287 172 260Q172 243 173 235M359 563L354 563L175 641Q121 663 121 704Q121 721 134 734.50Q147 748 164 748Q194 748 223 718L359 563Z"  horiz-adv-x="481" vert-adv-y="1000"  />

      
      <glyph glyph-name="unie9" unicode="&#xe9;" d="M481 113Q470 84 457 71Q387-14 248-14Q137-14 72.50 49Q8 112 8 223Q8 337 85.50 411Q163 485 282 485Q315 485 345 479.50Q375 474 405 462Q435 450 452.50 424.50Q470 399 470 364Q470 320 439 287.50Q408 255 356.50 236.50Q305 218 263.50 209Q222 200 176 195Q183 129 221.50 94Q260 59 327 59Q415 59 481 113M173 235Q219 237 259 253Q297 267 312.50 295Q328 323 328 367Q328 398 311 420.50Q294 443 263 443Q235 443 215.50 423.50Q196 404 187.50 372Q179 340 175.50 313.50Q172 287 172 260Q172 243 173 235M305 641L126 563L121 563L257 718Q286 748 316 748Q333 748 346 734.50Q359 721 359 704Q359 663 305 641Z"  horiz-adv-x="481" vert-adv-y="1000"  />

      
      <glyph glyph-name="uniea" unicode="&#xea;" d="M481 113Q470 84 457 71Q387-14 248-14Q137-14 72.50 49Q8 112 8 223Q8 337 85.50 411Q163 485 282 485Q315 485 345 479.50Q375 474 405 462Q435 450 452.50 424.50Q470 399 470 364Q470 320 439 287.50Q408 255 356.50 236.50Q305 218 263.50 209Q222 200 176 195Q183 129 221.50 94Q260 59 327 59Q415 59 481 113M173 235Q219 237 259 253Q297 267 312.50 295Q328 323 328 367Q328 398 311 420.50Q294 443 263 443Q235 443 215.50 423.50Q196 404 187.50 372Q179 340 175.50 313.50Q172 287 172 260Q172 243 173 235M407 563L403 563L242 656L75 563L73 563L196 737L285 737L407 563Z"  horiz-adv-x="481" vert-adv-y="1000"  />

      
      <glyph glyph-name="unieb" unicode="&#xeb;" d="M481 113Q470 84 457 71Q387-14 248-14Q137-14 72.50 49Q8 112 8 223Q8 337 85.50 411Q163 485 282 485Q315 485 345 479.50Q375 474 405 462Q435 450 452.50 424.50Q470 399 470 364Q470 320 439 287.50Q408 255 356.50 236.50Q305 218 263.50 209Q222 200 176 195Q183 129 221.50 94Q260 59 327 59Q415 59 481 113M173 235Q219 237 259 253Q297 267 312.50 295Q328 323 328 367Q328 398 311 420.50Q294 443 263 443Q235 443 215.50 423.50Q196 404 187.50 372Q179 340 175.50 313.50Q172 287 172 260Q172 243 173 235M390 592Q390 592 380.50 582.50Q371 573 345 573Q319 573 300 592Q281 611 281 637Q281 663 300 682Q319 701 345 701Q371 701 390 682Q409 663 409 637Q409 611 390 592M180 592Q180 592 170.50 582.50Q161 573 135 573Q109 573 90 592Q71 611 71 637Q71 663 90 682Q109 701 135 701Q161 701 180 682Q199 663 199 637Q199 611 180 592Z"  horiz-adv-x="481" vert-adv-y="1000"  />

      
      <glyph glyph-name="uniec" unicode="&#xec;" d="M199 0L43 0L43 392Q43 460-20 471L199 471L199 0M241 563L236 563L57 641Q3 663 3 704Q3 721 16 734.50Q29 748 46 748Q76 748 105 718L241 563Z"  horiz-adv-x="245" vert-adv-y="1000"  />

      
      <glyph glyph-name="unied" unicode="&#xed;" d="M199 0L43 0L43 392Q43 460-20 471L199 471L199 0M188 641L9 563L4 563L140 718Q168 748 199 748Q216 748 229 734.50Q242 721 242 704Q242 663 188 641Z"  horiz-adv-x="245" vert-adv-y="1000"  />

      
      <glyph glyph-name="uniee" unicode="&#xee;" d="M199 0L43 0L43 392Q43 460-20 471L199 471L199 0M290 563L286 563L125 656L-42 563L-44 563L79 737L168 737L290 563Z"  horiz-adv-x="245" vert-adv-y="1000"  />

      
      <glyph glyph-name="unief" unicode="&#xef;" d="M199 0L43 0L43 392Q43 460-20 471L199 471L199 0M273 592Q273 592 263.50 582.50Q254 573 228 573Q202 573 183 592Q164 611 164 637Q164 663 183 682Q202 701 228 701Q254 701 273 682Q292 663 292 637Q292 611 273 592M63 592Q63 592 53.50 582.50Q44 573 18 573Q-8 573-27 592Q-46 611-46 637Q-46 663-27 682Q-8 701 18 701Q44 701 63 682Q82 663 82 637Q82 611 63 592Z"  horiz-adv-x="245" vert-adv-y="1000"  />

      
      <glyph glyph-name="unif0" unicode="&#xf0;" d="M155 118Q176 28 238 28Q285 28 306 83Q327 138 327 250Q327 478 238 478Q177 478 155 384Q142 335 142 256Q142 166 155 118M302 492Q325 483 348 463Q331 510 304 548Q269 594 225 628L121 566L80 599L179 657Q144 676 110 687Q96 692 38 704L49 738Q99 735 153 720Q213 700 232 691L338 752L378 720L282 665Q492 535 492 307Q492 163 416 80Q341-4 235-4Q134-4 61 67Q-11 139-11 242Q-11 361 57 434Q126 506 225 506Q271 506 302 492Z"  horiz-adv-x="514" vert-adv-y="1000"  />

      
      <glyph glyph-name="unif1" unicode="&#xf1;" d="M355 115L355 318Q355 410 285 410Q248 410 223.50 381.50Q199 353 199 301L199 0L43 0L43 392Q43 460-20 471L199 471L199 413Q260 479 355 479Q423 479 467 442Q511 405 511 332L511 120Q511 91 528 72Q545 53 577 53Q611 53 626 58Q611 26 575 6.50Q539-13 486-13Q420-13 387.50 23.50Q355 60 355 115M423 708L466 708Q461 652 429 617Q397 582 345 582Q315 582 265 607.50Q215 633 193 633Q173 633 158 617.50Q143 602 142 582L100 582Q106 640 135.50 674Q165 708 219 708Q254 708 304 683.50Q354 659 371 659Q421 659 423 708Z"  horiz-adv-x="566" vert-adv-y="1000"  />

      
      <glyph glyph-name="unif2" unicode="&#xf2;" d="M548 241Q548 122 469.50 52.50Q391-17 270-17Q151-17 79.50 50.50Q8 118 8 236Q8 353 85 422.50Q162 492 281 492Q400 492 474 425.50Q548 359 548 241M278 21Q378 21 378 238Q378 455 283 455Q251 455 229 434Q207 413 197.50 378Q188 343 184.50 313.50Q181 284 181 252Q181 226 181.50 210.50Q182 195 184.50 163Q187 131 193 110.50Q199 90 209 67Q219 44 237 32.50Q255 21 278 21M397 563L392 563L213 641Q159 663 159 704Q159 721 172 734.50Q185 748 202 748Q232 748 261 718L397 563Z"  horiz-adv-x="556" vert-adv-y="1000"  />

      
      <glyph glyph-name="unif3" unicode="&#xf3;" d="M548 241Q548 122 469.50 52.50Q391-17 270-17Q151-17 79.50 50.50Q8 118 8 236Q8 353 85 422.50Q162 492 281 492Q400 492 474 425.50Q548 359 548 241M278 21Q378 21 378 238Q378 455 283 455Q251 455 229 434Q207 413 197.50 378Q188 343 184.50 313.50Q181 284 181 252Q181 226 181.50 210.50Q182 195 184.50 163Q187 131 193 110.50Q199 90 209 67Q219 44 237 32.50Q255 21 278 21M343 641L164 563L159 563L295 718Q324 748 354 748Q371 748 384 734.50Q397 721 397 704Q397 663 343 641Z"  horiz-adv-x="556" vert-adv-y="1000"  />

      
      <glyph glyph-name="unif4" unicode="&#xf4;" d="M548 241Q548 122 469.50 52.50Q391-17 270-17Q151-17 79.50 50.50Q8 118 8 236Q8 353 85 422.50Q162 492 281 492Q400 492 474 425.50Q548 359 548 241M278 21Q378 21 378 238Q378 455 283 455Q251 455 229 434Q207 413 197.50 378Q188 343 184.50 313.50Q181 284 181 252Q181 226 181.50 210.50Q182 195 184.50 163Q187 131 193 110.50Q199 90 209 67Q219 44 237 32.50Q255 21 278 21M445 563L441 563L280 656L113 563L111 563L234 737L323 737L445 563Z"  horiz-adv-x="556" vert-adv-y="1000"  />

      
      <glyph glyph-name="unif5" unicode="&#xf5;" d="M548 241Q548 122 469.50 52.50Q391-17 270-17Q151-17 79.50 50.50Q8 118 8 236Q8 353 85 422.50Q162 492 281 492Q400 492 474 425.50Q548 359 548 241M278 21Q378 21 378 238Q378 455 283 455Q251 455 229 434Q207 413 197.50 378Q188 343 184.50 313.50Q181 284 181 252Q181 226 181.50 210.50Q182 195 184.50 163Q187 131 193 110.50Q199 90 209 67Q219 44 237 32.50Q255 21 278 21M418 708L461 708Q456 652 424 617Q392 582 340 582Q310 582 260 607.50Q210 633 188 633Q168 633 153 617.50Q138 602 137 582L95 582Q101 640 130.50 674Q160 708 214 708Q249 708 299 683.50Q349 659 366 659Q416 659 418 708Z"  horiz-adv-x="556" vert-adv-y="1000"  />

      
      <glyph glyph-name="unif6" unicode="&#xf6;" d="M548 241Q548 122 469.50 52.50Q391-17 270-17Q151-17 79.50 50.50Q8 118 8 236Q8 353 85 422.50Q162 492 281 492Q400 492 474 425.50Q548 359 548 241M278 21Q378 21 378 238Q378 455 283 455Q251 455 229 434Q207 413 197.50 378Q188 343 184.50 313.50Q181 284 181 252Q181 226 181.50 210.50Q182 195 184.50 163Q187 131 193 110.50Q199 90 209 67Q219 44 237 32.50Q255 21 278 21M428 592Q428 592 418.50 582.50Q409 573 383 573Q357 573 338 592Q319 611 319 637Q319 663 338 682Q357 701 383 701Q409 701 428 682Q447 663 447 637Q447 611 428 592M218 592Q218 592 208.50 582.50Q199 573 173 573Q147 573 128 592Q109 611 109 637Q109 663 128 682Q147 701 173 701Q199 701 218 682Q237 663 237 637Q237 611 218 592Z"  horiz-adv-x="556" vert-adv-y="1000"  />

      
      <glyph glyph-name="unif7" unicode="&#xf7;" d="M355 521.50Q355 521.50 366 510.75Q377 500 377 467Q377 434 355 413Q333 392 300 392Q267 392 245.50 413Q224 434 224 467Q224 500 245.50 521.50Q267 543 300 543Q333 543 355 521.50M542 296L542 210L59 210L59 296L542 296M355 93Q355 93 366 82.50Q377 72 377 39Q377 6 355-15.50Q333-37 300-37Q267-37 245.50-15.50Q224 6 224 39Q224 72 245.50 93Q267 114 300 114Q333 114 355 93Z"  horiz-adv-x="600" vert-adv-y="1000"  />

      
      <glyph glyph-name="unif8" unicode="&#xf8;" d="M115-124L61-123L438 601L493 600L115-124M548 241Q548 122 469.50 52.50Q391-17 270-17Q151-17 79.50 50.50Q8 118 8 236Q8 353 85 422.50Q162 492 281 492Q400 492 474 425.50Q548 359 548 241M278 21Q378 21 378 238Q378 455 283 455Q251 455 229 434Q207 413 197.50 378Q188 343 184.50 313.50Q181 284 181 252Q181 226 181.50 210.50Q182 195 184.50 163Q187 131 193 110.50Q199 90 209 67Q219 44 237 32.50Q255 21 278 21Z"  horiz-adv-x="556" vert-adv-y="1000"  />

      
      <glyph glyph-name="unif9" unicode="&#xf9;" d="M350 159L350 471L506 471L506 120Q506 91 523 73Q540 55 572 55Q606 55 621 60Q606 28 568 8.50Q530-11 478-11Q389-11 356 59Q300-9 192-9Q124-9 81 29Q38 67 38 139L38 391Q38 459-25 470L194 471L194 156Q194 67 270 67Q304 67 327 89.50Q350 112 350 159M401 563L396 563L217 641Q163 663 163 704Q163 721 176 734.50Q189 748 206 748Q237 748 265 718L401 563Z"  horiz-adv-x="565" vert-adv-y="1000"  />

      
      <glyph glyph-name="unifa" unicode="&#xfa;" d="M350 159L350 471L506 471L506 120Q506 91 523 73Q540 55 572 55Q606 55 621 60Q606 28 568 8.50Q530-11 478-11Q389-11 356 59Q300-9 192-9Q124-9 81 29Q38 67 38 139L38 391Q38 459-25 470L194 471L194 156Q194 67 270 67Q304 67 327 89.50Q350 112 350 159M347 641L168 563L163 563L299 718Q328 748 358 748Q375 748 388 734.50Q401 721 401 704Q401 663 347 641Z"  horiz-adv-x="565" vert-adv-y="1000"  />

      
      <glyph glyph-name="unifb" unicode="&#xfb;" d="M350 159L350 471L506 471L506 120Q506 91 523 73Q540 55 572 55Q606 55 621 60Q606 28 568 8.50Q530-11 478-11Q389-11 356 59Q300-9 192-9Q124-9 81 29Q38 67 38 139L38 391Q38 459-25 470L194 471L194 156Q194 67 270 67Q304 67 327 89.50Q350 112 350 159M449 563L445 563L284 656L117 563L115 563L238 737L327 737L449 563Z"  horiz-adv-x="565" vert-adv-y="1000"  />

      
      <glyph glyph-name="unifc" unicode="&#xfc;" d="M350 159L350 471L506 471L506 120Q506 91 523 73Q540 55 572 55Q606 55 621 60Q606 28 568 8.50Q530-11 478-11Q389-11 356 59Q300-9 192-9Q124-9 81 29Q38 67 38 139L38 391Q38 459-25 470L194 471L194 156Q194 67 270 67Q304 67 327 89.50Q350 112 350 159M432 592Q432 592 422.50 582.50Q413 573 387 573Q361 573 342 592Q323 611 323 637Q323 663 342 682Q361 701 387 701Q413 701 432 682Q451 663 451 637Q451 611 432 592M222 592Q222 592 212.50 582.50Q203 573 177 573Q151 573 132 592Q113 611 113 637Q113 663 132 682Q151 701 177 701Q203 701 222 682Q241 663 241 637Q241 611 222 592Z"  horiz-adv-x="565" vert-adv-y="1000"  />

      
      <glyph glyph-name="unifd" unicode="&#xfd;" d="M506 194L506 30Q506-91 433-146Q360-201 249-201Q106-201 41-108Q103-137 204-137Q258-137 301.50-108.50Q345-80 345-18L345 17Q289-7 218-7Q132-7 85 34.50Q38 76 38 153L38 391Q38 459-25 470L194 471L194 158Q194 51 282 51Q317 51 345 66L350 471L506 471L506 194M346 641L167 563L162 563L298 718Q326 748 357 748Q374 748 387 734.50Q400 721 400 704Q400 663 346 641Z"  horiz-adv-x="563" vert-adv-y="1000"  />

      
      <glyph glyph-name="unife" unicode="&#xfe;" d="M490 226L490 225L490 223Q490-6 198-6Q186-6 162-4L162-140L33-140L33 503Q33 611-26 626L162 626L162 459Q168 459 180 459.50Q192 460 198 460Q243 460 280 455.50Q317 451 357.50 436Q398 421 426 396.50Q454 372 472 328Q490 284 490 226M328 225L328 226Q329 233 329 246Q329 291 320.50 326Q312 361 288 386.50Q264 412 226 412Q181 412 162 381L162 71Q181 41 226 41Q329 41 329 204Q329 217 328 223L328 225Z"  horiz-adv-x="526" vert-adv-y="1000"  />

      
      <glyph glyph-name="uniff" unicode="&#xff;" d="M506 194L506 30Q506-91 433-146Q360-201 249-201Q106-201 41-108Q103-137 204-137Q258-137 301.50-108.50Q345-80 345-18L345 17Q289-7 218-7Q132-7 85 34.50Q38 76 38 153L38 391Q38 459-25 470L194 471L194 158Q194 51 282 51Q317 51 345 66L350 471L506 471L506 194M431 592Q431 592 421.50 582.50Q412 573 386 573Q360 573 341 592Q322 611 322 637Q322 663 341 682Q360 701 386 701Q412 701 431 682Q450 663 450 637Q450 611 431 592M221 592Q221 592 211.50 582.50Q202 573 176 573Q150 573 131 592Q112 611 112 637Q112 663 131 682Q150 701 176 701Q202 701 221 682Q240 663 240 637Q240 611 221 592Z"  horiz-adv-x="563" vert-adv-y="1000"  />

      
      <glyph glyph-name="uni0100" unicode="&#x0100;" d="M319 701L628 0L432 0L349 191L131 191Q116 158 95 102Q83 67 89 48Q94 31 108.50 18Q123 5 139 1L139 0L-24 0L171 450L280 701L319 701M156 247L325 247L240 438L156 247M446 816L154 816L154 893L446 893L446 816Z"  horiz-adv-x="600" vert-adv-y="1000"  />

      
      <glyph glyph-name="uni0101" unicode="&#x0101;" d="M346 144L347 355Q347 400 326 422Q305 444 275 444Q177 444 177 229Q177 49 267 49Q304 49 325.50 74Q347 99 346 144M362 42L360 42Q305-13 205-13Q113-13 60.50 47.50Q8 108 8 221Q8 340 78.50 414.50Q149 489 280 489Q412 489 504 419L504 121Q504 88 523 70Q542 52 575 52Q602 52 618 58Q603 25 563.50 7Q524-11 480-11Q396-11 362 42M423 597L131 597L131 674L423 674L423 597Z"  horiz-adv-x="554" vert-adv-y="1000"  />

      
      <glyph glyph-name="uni0102" unicode="&#x0102;" d="M319 701L628 0L432 0L349 191L131 191Q116 158 95 102Q83 67 89 48Q94 31 108.50 18Q123 5 139 1L139 0L-24 0L171 450L280 701L319 701M156 247L325 247L240 438L156 247M408 945L451 945Q450 870 411.50 826Q373 782 300 782Q227 782 188.50 826Q150 870 149 945L192 945Q208 859 300 859Q392 859 408 945Z"  horiz-adv-x="600" vert-adv-y="1000"  />

      
      <glyph glyph-name="uni0103" unicode="&#x0103;" d="M346 144L347 355Q347 400 326 422Q305 444 275 444Q177 444 177 229Q177 49 267 49Q304 49 325.50 74Q347 99 346 144M362 42L360 42Q305-13 205-13Q113-13 60.50 47.50Q8 108 8 221Q8 340 78.50 414.50Q149 489 280 489Q412 489 504 419L504 121Q504 88 523 70Q542 52 575 52Q602 52 618 58Q603 25 563.50 7Q524-11 480-11Q396-11 362 42M385 726L428 726Q427 651 388.50 607Q350 563 277 563Q204 563 165.50 607Q127 651 126 726L169 726Q185 640 277 640Q369 640 385 726Z"  horiz-adv-x="554" vert-adv-y="1000"  />

      
      <glyph glyph-name="uni0104" unicode="&#x0104;" d="M319 701L628 0L432 0L349 191L131 191Q116 158 95 102Q83 67 89 48Q94 31 108.50 18Q123 5 139 1L139 0L-24 0L171 450L280 701L319 701M156 247L325 247L240 438L156 247M658-156L672-171Q619-216 548-216Q499-216 473.50-194Q448-172 448-132Q448-88 482.50-56Q517-24 588 1L631 1Q604-16 590.50-26.50Q577-37 561.50-61Q546-85 546-112Q546-140 562.50-158Q579-176 606-176Q633-176 658-156Z"  horiz-adv-x="600" vert-adv-y="1000"  />

      
      <glyph glyph-name="uni0105" unicode="&#x0105;" d="M346 144L347 355Q347 400 326 422Q305 444 275 444Q177 444 177 229Q177 49 267 49Q304 49 325.50 74Q347 99 346 144M362 42L360 42Q305-13 205-13Q113-13 60.50 47.50Q8 108 8 221Q8 340 78.50 414.50Q149 489 280 489Q412 489 504 419L504 121Q504 88 523 70Q542 52 575 52Q602 52 618 58Q603 25 563.50 7Q524-11 480-11Q396-11 362 42M604-157L618-172Q565-217 494-217Q445-217 419.50-195Q394-173 394-133Q394-89 428.50-57Q463-25 534 0L577 0Q550-17 536.50-27.50Q523-38 507.50-62Q492-86 492-113Q492-141 508.50-159Q525-177 552-177Q579-177 604-157Z"  horiz-adv-x="554" vert-adv-y="1000"  />

      
      <glyph glyph-name="uni0106" unicode="&#x0106;" d="M639 176L663 131Q653 115 637 97.50Q621 80 586 51.50Q551 23 494.50 4.50Q438-14 370-14Q207-14 114 82Q21 178 21 338Q21 501 126.50 605.50Q232 710 394 710Q453 710 527 690.50Q601 671 629 676L615 477Q534 662 400 662Q313 662 260 581.50Q207 501 207 350Q207 198 263 124Q319 50 416 50Q500 50 562.50 97Q625 144 639 176M421 860L242 782L237 782L373 937Q402 967 432 967Q449 967 462 953.50Q475 940 475 923Q475 882 421 860Z"  horiz-adv-x="640" vert-adv-y="1000"  />

      
      <glyph glyph-name="uni0107" unicode="&#x0107;" d="M450 444L435 300Q427 320 422 330.50Q417 341 403 364.50Q389 388 374.50 401Q360 414 336 425.50Q312 437 284 437Q231 437 199 390Q167 343 167 255Q167 166 210 112Q253 58 332 58Q364 58 404.50 71Q445 84 467 106Q460 87 442 65Q379-13 252-13Q134-13 71 54.50Q8 122 8 227Q8 342 83.50 413Q159 484 277 484Q364 484 450 444M293 641L114 563L109 563L245 718Q274 748 304 748Q321 748 334 734.50Q347 721 347 704Q347 663 293 641Z"  horiz-adv-x="456" vert-adv-y="1000"  />

      
      <glyph glyph-name="uni0108" unicode="&#x0108;" d="M639 176L663 131Q653 115 637 97.50Q621 80 586 51.50Q551 23 494.50 4.50Q438-14 370-14Q207-14 114 82Q21 178 21 338Q21 501 126.50 605.50Q232 710 394 710Q453 710 527 690.50Q601 671 629 676L615 477Q534 662 400 662Q313 662 260 581.50Q207 501 207 350Q207 198 263 124Q319 50 416 50Q500 50 562.50 97Q625 144 639 176M487 782L483 782L322 875L155 782L153 782L276 956L365 956L487 782Z"  horiz-adv-x="640" vert-adv-y="1000"  />

      
      <glyph glyph-name="uni0109" unicode="&#x0109;" d="M450 444L435 300Q427 320 422 330.50Q417 341 403 364.50Q389 388 374.50 401Q360 414 336 425.50Q312 437 284 437Q231 437 199 390Q167 343 167 255Q167 166 210 112Q253 58 332 58Q364 58 404.50 71Q445 84 467 106Q460 87 442 65Q379-13 252-13Q134-13 71 54.50Q8 122 8 227Q8 342 83.50 413Q159 484 277 484Q364 484 450 444M395 563L391 563L230 656L63 563L61 563L184 737L273 737L395 563Z"  horiz-adv-x="456" vert-adv-y="1000"  />

      
      <glyph glyph-name="uni010A" unicode="&#x010A;" d="M639 176L663 131Q653 115 637 97.50Q621 80 586 51.50Q551 23 494.50 4.50Q438-14 370-14Q207-14 114 82Q21 178 21 338Q21 501 126.50 605.50Q232 710 394 710Q453 710 527 690.50Q601 671 629 676L615 477Q534 662 400 662Q313 662 260 581.50Q207 501 207 350Q207 198 263 124Q319 50 416 50Q500 50 562.50 97Q625 144 639 176M365 811Q365 811 355.50 801.50Q346 792 320 792Q294 792 275 811Q256 830 256 856Q256 882 275 901Q294 920 320 920Q346 920 365 901Q384 882 384 856Q384 830 365 811Z"  horiz-adv-x="640" vert-adv-y="1000"  />

      
      <glyph glyph-name="uni010B" unicode="&#x010B;" d="M450 444L435 300Q427 320 422 330.50Q417 341 403 364.50Q389 388 374.50 401Q360 414 336 425.50Q312 437 284 437Q231 437 199 390Q167 343 167 255Q167 166 210 112Q253 58 332 58Q364 58 404.50 71Q445 84 467 106Q460 87 442 65Q379-13 252-13Q134-13 71 54.50Q8 122 8 227Q8 342 83.50 413Q159 484 277 484Q364 484 450 444M273 592Q273 592 263.50 582.50Q254 573 228 573Q202 573 183 592Q164 611 164 637Q164 663 183 682Q202 701 228 701Q254 701 273 682Q292 663 292 637Q292 611 273 592Z"  horiz-adv-x="456" vert-adv-y="1000"  />

      
      <glyph glyph-name="uni010C" unicode="&#x010C;" d="M639 176L663 131Q653 115 637 97.50Q621 80 586 51.50Q551 23 494.50 4.50Q438-14 370-14Q207-14 114 82Q21 178 21 338Q21 501 126.50 605.50Q232 710 394 710Q453 710 527 690.50Q601 671 629 676L615 477Q534 662 400 662Q313 662 260 581.50Q207 501 207 350Q207 198 263 124Q319 50 416 50Q500 50 562.50 97Q625 144 639 176M365 782L276 782L153 956L157 956L322 859L483 956L487 956L365 782Z"  horiz-adv-x="640" vert-adv-y="1000"  />

      
      <glyph glyph-name="uni010D" unicode="&#x010D;" d="M450 444L435 300Q427 320 422 330.50Q417 341 403 364.50Q389 388 374.50 401Q360 414 336 425.50Q312 437 284 437Q231 437 199 390Q167 343 167 255Q167 166 210 112Q253 58 332 58Q364 58 404.50 71Q445 84 467 106Q460 87 442 65Q379-13 252-13Q134-13 71 54.50Q8 122 8 227Q8 342 83.50 413Q159 484 277 484Q364 484 450 444M273 563L184 563L61 737L65 737L230 640L391 737L395 737L273 563Z"  horiz-adv-x="456" vert-adv-y="1000"  />

      
      <glyph glyph-name="uni010E" unicode="&#x010E;" d="M237 576L237 158Q237 134 237.50 120.50Q238 107 243 88Q248 69 257 59.50Q266 50 283.50 42.50Q301 35 327 35Q521 35 521 351Q521 405 511 454Q501 503 479 549Q457 595 415 622Q373 649 315 649Q237 649 237 576M63 10L63 578Q63 624 44.50 642.50Q26 661-15 667L-15 668Q134 694 318 694Q499 694 604.50 608.50Q710 523 710 354Q710 179 605 84.50Q500-10 324-10Q185-10 63 10M408 782L319 782L196 956L200 956L365 859L526 956L530 956L408 782Z"  horiz-adv-x="726" vert-adv-y="1000"  />

      
      <glyph glyph-name="uni010F" unicode="&#x010F;" d="M349 154L349 334Q349 431 273 431Q230 431 203.50 380Q177 329 177 227Q177 49 266 49Q302 49 325.50 75.50Q349 102 349 154M360 42L358 42Q309-13 212-13Q115-13 61.50 48.50Q8 110 8 225Q8 333 71.50 407Q135 481 242 481Q313 481 347 453L349 453L349 584Q349 649 287 663L505 663L505 125Q505 92 524.50 73Q544 54 575 54Q593 54 619 60Q602 25 560.50 7.50Q519-10 474-10Q389-10 360 42M608 379L604 384Q639 413 660.50 466.50Q682 520 678 555Q645 555 621.50 578.50Q598 602 598 638Q598 672 621.50 696Q645 720 680 720Q721 720 745 692.50Q769 665 769 618Q769 535 726 470Q683 405 608 379Z"  horiz-adv-x="770" vert-adv-y="1000"  />

      
      <glyph glyph-name="uni0110" unicode="&#x0110;" d="M237 576L237 158Q237 134 237.50 120.50Q238 107 243 88Q248 69 257 59.50Q266 50 283.50 42.50Q301 35 327 35Q521 35 521 351Q521 405 511 454Q501 503 479 549Q457 595 415 622Q373 649 315 649Q237 649 237 576M63 10L63 578Q63 624 44.50 642.50Q26 661-15 667L-15 668Q134 694 318 694Q499 694 604.50 608.50Q710 523 710 354Q710 179 605 84.50Q500-10 324-10Q185-10 63 10M326 301L-30 301L-30 383L326 383L326 301Z"  horiz-adv-x="726" vert-adv-y="1000"  />

      
      <glyph glyph-name="uni0111" unicode="&#x0111;" d="M349 154L349 334Q349 431 273 431Q230 431 203.50 380Q177 329 177 227Q177 49 266 49Q302 49 325.50 75.50Q349 102 349 154M360 42L358 42Q309-13 212-13Q115-13 61.50 48.50Q8 110 8 225Q8 333 71.50 407Q135 481 242 481Q313 481 347 453L349 453L349 584Q349 649 287 663L505 663L505 125Q505 92 524.50 73Q544 54 575 54Q593 54 619 60Q602 25 560.50 7.50Q519-10 474-10Q389-10 360 42M590 601L590 539L170 539L170 601L590 601Z"  horiz-adv-x="558" vert-adv-y="1000"  />

      
      <glyph glyph-name="uni0112" unicode="&#x0112;" d="M566 200L542 0L61 0L61 578Q61 632 43 657Q25 682-20 690L525 690L513 495Q472 634 335 634L237 634L237 402L370 402Q416 402 430 438L430 299Q416 340 370 340L237 340L237 61L369 61Q434 61 489 100Q544 139 566 200M425 816L133 816L133 893L425 893L425 816Z"  horiz-adv-x="558" vert-adv-y="1000"  />

      
      <glyph glyph-name="uni0113" unicode="&#x0113;" d="M481 113Q470 84 457 71Q387-14 248-14Q137-14 72.50 49Q8 112 8 223Q8 337 85.50 411Q163 485 282 485Q315 485 345 479.50Q375 474 405 462Q435 450 452.50 424.50Q470 399 470 364Q470 320 439 287.50Q408 255 356.50 236.50Q305 218 263.50 209Q222 200 176 195Q183 129 221.50 94Q260 59 327 59Q415 59 481 113M173 235Q219 237 259 253Q297 267 312.50 295Q328 323 328 367Q328 398 311 420.50Q294 443 263 443Q235 443 215.50 423.50Q196 404 187.50 372Q179 340 175.50 313.50Q172 287 172 260Q172 243 173 235M386 597L94 597L94 674L386 674L386 597Z"  horiz-adv-x="481" vert-adv-y="1000"  />

      
      <glyph glyph-name="uni0114" unicode="&#x0114;" d="M566 200L542 0L61 0L61 578Q61 632 43 657Q25 682-20 690L525 690L513 495Q472 634 335 634L237 634L237 402L370 402Q416 402 430 438L430 299Q416 340 370 340L237 340L237 61L369 61Q434 61 489 100Q544 139 566 200M387 945L430 945Q429 870 390.50 826Q352 782 279 782Q206 782 167.50 826Q129 870 128 945L171 945Q187 859 279 859Q371 859 387 945Z"  horiz-adv-x="558" vert-adv-y="1000"  />

      
      <glyph glyph-name="uni0115" unicode="&#x0115;" d="M481 113Q470 84 457 71Q387-14 248-14Q137-14 72.50 49Q8 112 8 223Q8 337 85.50 411Q163 485 282 485Q315 485 345 479.50Q375 474 405 462Q435 450 452.50 424.50Q470 399 470 364Q470 320 439 287.50Q408 255 356.50 236.50Q305 218 263.50 209Q222 200 176 195Q183 129 221.50 94Q260 59 327 59Q415 59 481 113M173 235Q219 237 259 253Q297 267 312.50 295Q328 323 328 367Q328 398 311 420.50Q294 443 263 443Q235 443 215.50 423.50Q196 404 187.50 372Q179 340 175.50 313.50Q172 287 172 260Q172 243 173 235M348 726L391 726Q390 651 351.50 607Q313 563 240 563Q167 563 128.50 607Q90 651 89 726L132 726Q148 640 240 640Q332 640 348 726Z"  horiz-adv-x="481" vert-adv-y="1000"  />

      
      <glyph glyph-name="uni0116" unicode="&#x0116;" d="M566 200L542 0L61 0L61 578Q61 632 43 657Q25 682-20 690L525 690L513 495Q472 634 335 634L237 634L237 402L370 402Q416 402 430 438L430 299Q416 340 370 340L237 340L237 61L369 61Q434 61 489 100Q544 139 566 200M324 811Q324 811 314.50 801.50Q305 792 279 792Q253 792 234 811Q215 830 215 856Q215 882 234 901Q253 920 279 920Q305 920 324 901Q343 882 343 856Q343 830 324 811Z"  horiz-adv-x="558" vert-adv-y="1000"  />

      
      <glyph glyph-name="uni0117" unicode="&#x0117;" d="M481 113Q470 84 457 71Q387-14 248-14Q137-14 72.50 49Q8 112 8 223Q8 337 85.50 411Q163 485 282 485Q315 485 345 479.50Q375 474 405 462Q435 450 452.50 424.50Q470 399 470 364Q470 320 439 287.50Q408 255 356.50 236.50Q305 218 263.50 209Q222 200 176 195Q183 129 221.50 94Q260 59 327 59Q415 59 481 113M173 235Q219 237 259 253Q297 267 312.50 295Q328 323 328 367Q328 398 311 420.50Q294 443 263 443Q235 443 215.50 423.50Q196 404 187.50 372Q179 340 175.50 313.50Q172 287 172 260Q172 243 173 235M285 592Q285 592 275.50 582.50Q266 573 240 573Q214 573 195 592Q176 611 176 637Q176 663 195 682Q214 701 240 701Q266 701 285 682Q304 663 304 637Q304 611 285 592Z"  horiz-adv-x="481" vert-adv-y="1000"  />

      
      <glyph glyph-name="uni0118" unicode="&#x0118;" d="M566 200L542 0L61 0L61 578Q61 632 43 657Q25 682-20 690L525 690L513 495Q472 634 335 634L237 634L237 402L370 402Q416 402 430 438L430 299Q416 340 370 340L237 340L237 61L369 61Q434 61 489 100Q544 139 566 200M552-157L566-172Q513-217 442-217Q393-217 367.50-195Q342-173 342-133Q342-89 376.50-57Q411-25 482 0L525 0Q498-17 484.50-27.50Q471-38 455.50-62Q440-86 440-113Q440-141 456.50-159Q473-177 500-177Q527-177 552-157Z"  horiz-adv-x="558" vert-adv-y="1000"  />

      
      <glyph glyph-name="uni0119" unicode="&#x0119;" d="M481 113Q470 84 457 71Q387-14 248-14Q137-14 72.50 49Q8 112 8 223Q8 337 85.50 411Q163 485 282 485Q315 485 345 479.50Q375 474 405 462Q435 450 452.50 424.50Q470 399 470 364Q470 320 439 287.50Q408 255 356.50 236.50Q305 218 263.50 209Q222 200 176 195Q183 129 221.50 94Q260 59 327 59Q415 59 481 113M173 235Q219 237 259 253Q297 267 312.50 295Q328 323 328 367Q328 398 311 420.50Q294 443 263 443Q235 443 215.50 423.50Q196 404 187.50 372Q179 340 175.50 313.50Q172 287 172 260Q172 243 173 235M467-157L481-172Q428-217 357-217Q308-217 282.50-195Q257-173 257-133Q257-89 291.50-57Q326-25 397 0L440 0Q413-17 399.50-27.50Q386-38 370.50-62Q355-86 355-113Q355-141 371.50-159Q388-177 415-177Q442-177 467-157Z"  horiz-adv-x="481" vert-adv-y="1000"  />

      
      <glyph glyph-name="uni011A" unicode="&#x011A;" d="M566 200L542 0L61 0L61 578Q61 632 43 657Q25 682-20 690L525 690L513 495Q472 634 335 634L237 634L237 402L370 402Q416 402 430 438L430 299Q416 340 370 340L237 340L237 61L369 61Q434 61 489 100Q544 139 566 200M324 782L235 782L112 956L116 956L281 859L442 956L446 956L324 782Z"  horiz-adv-x="558" vert-adv-y="1000"  />

      
      <glyph glyph-name="uni011B" unicode="&#x011B;" d="M481 113Q470 84 457 71Q387-14 248-14Q137-14 72.50 49Q8 112 8 223Q8 337 85.50 411Q163 485 282 485Q315 485 345 479.50Q375 474 405 462Q435 450 452.50 424.50Q470 399 470 364Q470 320 439 287.50Q408 255 356.50 236.50Q305 218 263.50 209Q222 200 176 195Q183 129 221.50 94Q260 59 327 59Q415 59 481 113M173 235Q219 237 259 253Q297 267 312.50 295Q328 323 328 367Q328 398 311 420.50Q294 443 263 443Q235 443 215.50 423.50Q196 404 187.50 372Q179 340 175.50 313.50Q172 287 172 260Q172 243 173 235M285 563L196 563L73 737L77 737L242 640L403 737L407 737L285 563Z"  horiz-adv-x="481" vert-adv-y="1000"  />

      
      <glyph glyph-name="uni011C" unicode="&#x011C;" d="M663 327L663 45Q550-18 384-18Q209-18 114 77.50Q19 173 19 336Q19 502 124.50 604Q230 706 394 706Q453 706 532.50 686.50Q612 667 641 672L627 473Q621 486 612.50 502Q604 518 582.50 547.50Q561 577 537 599.50Q513 622 475.50 639Q438 656 398 656Q311 656 258 575.50Q205 495 205 344Q205 191 259.50 115.50Q314 40 410 40Q462 40 499 51L499 218Q499 266 482.50 291Q466 316 421 327L663 327M517 782L513 782L352 875L185 782L183 782L306 956L395 956L517 782Z"  horiz-adv-x="700" vert-adv-y="1000"  />

      
      <glyph glyph-name="uni011D" unicode="&#x011D;" d="M342 70L342 352Q342 438 264 438Q220 438 194.50 394.50Q169 351 169 241Q169 54 271 54Q312 54 342 70M497 403L497 20Q497-90 425-148Q353-206 234-206Q95-206 31-112Q97-136 180-136Q255-136 298.50-100.50Q342-65 342 2L342 21Q289 1 226 1Q121 1 63 63.50Q5 126 5 230Q5 341 75 411.50Q145 482 269 482Q419 482 497 403M435 563L431 563L270 656L103 563L101 563L224 737L313 737L435 563Z"  horiz-adv-x="537" vert-adv-y="1000"  />

      
      <glyph glyph-name="uni011E" unicode="&#x011E;" d="M663 327L663 45Q550-18 384-18Q209-18 114 77.50Q19 173 19 336Q19 502 124.50 604Q230 706 394 706Q453 706 532.50 686.50Q612 667 641 672L627 473Q621 486 612.50 502Q604 518 582.50 547.50Q561 577 537 599.50Q513 622 475.50 639Q438 656 398 656Q311 656 258 575.50Q205 495 205 344Q205 191 259.50 115.50Q314 40 410 40Q462 40 499 51L499 218Q499 266 482.50 291Q466 316 421 327L663 327M458 945L501 945Q500 870 461.50 826Q423 782 350 782Q277 782 238.50 826Q200 870 199 945L242 945Q258 859 350 859Q442 859 458 945Z"  horiz-adv-x="700" vert-adv-y="1000"  />

      
      <glyph glyph-name="uni011F" unicode="&#x011F;" d="M342 70L342 352Q342 438 264 438Q220 438 194.50 394.50Q169 351 169 241Q169 54 271 54Q312 54 342 70M497 403L497 20Q497-90 425-148Q353-206 234-206Q95-206 31-112Q97-136 180-136Q255-136 298.50-100.50Q342-65 342 2L342 21Q289 1 226 1Q121 1 63 63.50Q5 126 5 230Q5 341 75 411.50Q145 482 269 482Q419 482 497 403M376 726L419 726Q418 651 379.50 607Q341 563 268 563Q195 563 156.50 607Q118 651 117 726L160 726Q176 640 268 640Q360 640 376 726Z"  horiz-adv-x="537" vert-adv-y="1000"  />

      
      <glyph glyph-name="uni0120" unicode="&#x0120;" d="M663 327L663 45Q550-18 384-18Q209-18 114 77.50Q19 173 19 336Q19 502 124.50 604Q230 706 394 706Q453 706 532.50 686.50Q612 667 641 672L627 473Q621 486 612.50 502Q604 518 582.50 547.50Q561 577 537 599.50Q513 622 475.50 639Q438 656 398 656Q311 656 258 575.50Q205 495 205 344Q205 191 259.50 115.50Q314 40 410 40Q462 40 499 51L499 218Q499 266 482.50 291Q466 316 421 327L663 327M395 811Q395 811 385.50 801.50Q376 792 350 792Q324 792 305 811Q286 830 286 856Q286 882 305 901Q324 920 350 920Q376 920 395 901Q414 882 414 856Q414 830 395 811Z"  horiz-adv-x="700" vert-adv-y="1000"  />

      
      <glyph glyph-name="uni0121" unicode="&#x0121;" d="M342 70L342 352Q342 438 264 438Q220 438 194.50 394.50Q169 351 169 241Q169 54 271 54Q312 54 342 70M497 403L497 20Q497-90 425-148Q353-206 234-206Q95-206 31-112Q97-136 180-136Q255-136 298.50-100.50Q342-65 342 2L342 21Q289 1 226 1Q121 1 63 63.50Q5 126 5 230Q5 341 75 411.50Q145 482 269 482Q419 482 497 403M313 592Q313 592 303.50 582.50Q294 573 268 573Q242 573 223 592Q204 611 204 637Q204 663 223 682Q242 701 268 701Q294 701 313 682Q332 663 332 637Q332 611 313 592Z"  horiz-adv-x="537" vert-adv-y="1000"  />

      
      <glyph glyph-name="uni0122" unicode="&#x0122;" d="M663 327L663 45Q550-18 384-18Q209-18 114 77.50Q19 173 19 336Q19 502 124.50 604Q230 706 394 706Q453 706 532.50 686.50Q612 667 641 672L627 473Q621 486 612.50 502Q604 518 582.50 547.50Q561 577 537 599.50Q513 622 475.50 639Q438 656 398 656Q311 656 258 575.50Q205 495 205 344Q205 191 259.50 115.50Q314 40 410 40Q462 40 499 51L499 218Q499 266 482.50 291Q466 316 421 327L663 327M267-216L281-201Q308-221 335-221Q363-221 379.50-203Q396-185 396-157Q396-118 372-92.50Q348-67 309-44L353-44Q426-69 461.50-101Q497-133 497-177Q497-217 471-239Q445-261 394-261Q322-261 267-216Z"  horiz-adv-x="700" vert-adv-y="1000"  />

      
      <glyph glyph-name="uni0123" unicode="&#x0123;" d="M342 70L342 352Q342 438 264 438Q220 438 194.50 394.50Q169 351 169 241Q169 54 271 54Q312 54 342 70M497 403L497 20Q497-90 425-148Q353-206 234-206Q95-206 31-112Q97-136 180-136Q255-136 298.50-100.50Q342-65 342 2L342 21Q289 1 226 1Q121 1 63 63.50Q5 126 5 230Q5 341 75 411.50Q145 482 269 482Q419 482 497 403M367 590L381 574Q331 526 258 526Q210 526 184.50 549.50Q159 573 159 616Q159 663 193 697Q227 731 298 759L341 759Q314 740 300.50 729Q287 718 271.50 692.50Q256 667 256 638Q256 608 272.50 588.50Q289 569 316 569Q344 569 367 590Z"  horiz-adv-x="537" vert-adv-y="1000"  />

      
      <glyph glyph-name="uni0124" unicode="&#x0124;" d="M657 690L657 0L481 0L481 330L237 330L237 0L61 0L61 578Q61 632 43 657Q25 682-20 690L237 690L237 398L481 398L481 578Q481 632 463 657Q445 682 400 690L657 690M525 782L521 782L360 875L193 782L191 782L314 956L403 956L525 782Z"  horiz-adv-x="717" vert-adv-y="1000"  />

      
      <glyph glyph-name="uni0125" unicode="&#x0125;" d="M539 468L539 0L388 0L388 224L179 224L179 0L28 0L28 392Q28 429 12.50 446Q-3 463-41 468L179 468L179 270L388 270L388 392Q388 429 372.50 446Q357 463 319 468L539 468M451 514L447 514L286 607L119 514L117 514L240 688L329 688L451 514Z"  horiz-adv-x="573" vert-adv-y="1000"  />

      
      </font>
</defs>
</svg>
